%TF.GenerationSoftware,KiCad,Pcbnew,5.1.6-c6e7f7d~87~ubuntu18.04.1*%
%TF.CreationDate,2020-09-12T20:56:29+10:00*%
%TF.ProjectId,Switch_Toggler,53776974-6368-45f5-946f-67676c65722e,rev?*%
%TF.SameCoordinates,Original*%
%TF.FileFunction,Soldermask,Top*%
%TF.FilePolarity,Negative*%
%FSLAX46Y46*%
G04 Gerber Fmt 4.6, Leading zero omitted, Abs format (unit mm)*
G04 Created by KiCad (PCBNEW 5.1.6-c6e7f7d~87~ubuntu18.04.1) date 2020-09-12 20:56:29*
%MOMM*%
%LPD*%
G01*
G04 APERTURE LIST*
%ADD10C,2.200000*%
%ADD11R,2.200000X2.200000*%
%ADD12O,1.700000X1.700000*%
%ADD13R,1.700000X1.700000*%
%ADD14O,2.005000X2.100000*%
%ADD15R,2.005000X2.100000*%
%ADD16C,1.700000*%
%ADD17O,1.500000X1.500000*%
%ADD18C,1.500000*%
%ADD19R,1.150000X1.600000*%
%ADD20O,1.150000X1.600000*%
%ADD21C,3.300000*%
%ADD22O,2.300000X2.300000*%
%ADD23R,2.300000X2.300000*%
G04 APERTURE END LIST*
D10*
%TO.C,SW3*%
X48260000Y-72390000D03*
D11*
X45720000Y-72390000D03*
%TD*%
D10*
%TO.C,U3*%
X91440000Y-72390000D03*
X88900000Y-72390000D03*
X86360000Y-72390000D03*
D11*
X83820000Y-72390000D03*
%TD*%
D12*
%TO.C,U2*%
X78740000Y-91440000D03*
X71120000Y-99060000D03*
X78740000Y-93980000D03*
X71120000Y-96520000D03*
X78740000Y-96520000D03*
X71120000Y-93980000D03*
X78740000Y-99060000D03*
D13*
X71120000Y-91440000D03*
%TD*%
D14*
%TO.C,U1*%
X66040000Y-82550000D03*
X63500000Y-82550000D03*
D15*
X60960000Y-82550000D03*
%TD*%
D10*
%TO.C,SW2*%
X77470000Y-72390000D03*
D11*
X74930000Y-72390000D03*
%TD*%
D10*
%TO.C,SW1*%
X69850000Y-72390000D03*
D11*
X67310000Y-72390000D03*
%TD*%
D12*
%TO.C,R12*%
X87630000Y-83820000D03*
D16*
X87630000Y-91440000D03*
%TD*%
D12*
%TO.C,R11*%
X83820000Y-83820000D03*
D16*
X83820000Y-91440000D03*
%TD*%
D12*
%TO.C,R10*%
X104140000Y-80010000D03*
D16*
X96520000Y-80010000D03*
%TD*%
D17*
%TO.C,R9*%
X101600000Y-85090000D03*
D18*
X101600000Y-90170000D03*
%TD*%
D12*
%TO.C,R8*%
X45720000Y-93980000D03*
D16*
X53340000Y-93980000D03*
%TD*%
D12*
%TO.C,R7*%
X85090000Y-107950000D03*
D16*
X85090000Y-100330000D03*
%TD*%
D12*
%TO.C,R6*%
X91440000Y-100330000D03*
D16*
X91440000Y-107950000D03*
%TD*%
D12*
%TO.C,R5*%
X55880000Y-93980000D03*
D16*
X63500000Y-93980000D03*
%TD*%
D12*
%TO.C,R4*%
X57150000Y-106680000D03*
D16*
X64770000Y-106680000D03*
%TD*%
D12*
%TO.C,R3*%
X114300000Y-80010000D03*
D16*
X106680000Y-80010000D03*
%TD*%
D12*
%TO.C,R2*%
X76200000Y-106680000D03*
D16*
X68580000Y-106680000D03*
%TD*%
D17*
%TO.C,R1*%
X113030000Y-85090000D03*
D18*
X113030000Y-90170000D03*
%TD*%
D19*
%TO.C,Q4*%
X95250000Y-86360000D03*
D20*
X97790000Y-86360000D03*
X96520000Y-86360000D03*
%TD*%
D19*
%TO.C,Q3*%
X106680000Y-86360000D03*
D20*
X109220000Y-86360000D03*
X107950000Y-86360000D03*
%TD*%
D14*
%TO.C,Q2*%
X52070000Y-100330000D03*
X49530000Y-100330000D03*
D15*
X46990000Y-100330000D03*
%TD*%
D14*
%TO.C,Q1*%
X63500000Y-100330000D03*
X60960000Y-100330000D03*
D15*
X58420000Y-100330000D03*
%TD*%
D10*
%TO.C,J1*%
X60960000Y-72390000D03*
X58420000Y-72390000D03*
X55880000Y-72390000D03*
D11*
X53340000Y-72390000D03*
%TD*%
D21*
%TO.C,H2*%
X114000000Y-110000000D03*
%TD*%
%TO.C,H1*%
X46000000Y-110000000D03*
%TD*%
D22*
%TO.C,D3*%
X46990000Y-90170000D03*
D23*
X46990000Y-80010000D03*
%TD*%
D10*
%TO.C,D2*%
X102870000Y-72390000D03*
D11*
X100330000Y-72390000D03*
%TD*%
D10*
%TO.C,D1*%
X110490000Y-72390000D03*
D11*
X107950000Y-72390000D03*
%TD*%
D16*
%TO.C,C2*%
X76740000Y-85090000D03*
X78740000Y-85090000D03*
%TD*%
%TO.C,C1*%
X54610000Y-81820000D03*
X54610000Y-83820000D03*
%TD*%
M02*
