%TF.GenerationSoftware,KiCad,Pcbnew,5.1.6-c6e7f7d~87~ubuntu18.04.1*%
%TF.CreationDate,2020-09-12T21:04:16+10:00*%
%TF.ProjectId,Switch_Toggler,53776974-6368-45f5-946f-67676c65722e,rev?*%
%TF.SameCoordinates,Original*%
%TF.FileFunction,Copper,L2,Bot*%
%TF.FilePolarity,Positive*%
%FSLAX46Y46*%
G04 Gerber Fmt 4.6, Leading zero omitted, Abs format (unit mm)*
G04 Created by KiCad (PCBNEW 5.1.6-c6e7f7d~87~ubuntu18.04.1) date 2020-09-12 21:04:16*
%MOMM*%
%LPD*%
G01*
G04 APERTURE LIST*
%TA.AperFunction,ComponentPad*%
%ADD10C,2.100000*%
%TD*%
%TA.AperFunction,ComponentPad*%
%ADD11R,2.100000X2.100000*%
%TD*%
%TA.AperFunction,ComponentPad*%
%ADD12O,1.600000X1.600000*%
%TD*%
%TA.AperFunction,ComponentPad*%
%ADD13R,1.600000X1.600000*%
%TD*%
%TA.AperFunction,ComponentPad*%
%ADD14O,1.905000X2.000000*%
%TD*%
%TA.AperFunction,ComponentPad*%
%ADD15R,1.905000X2.000000*%
%TD*%
%TA.AperFunction,ComponentPad*%
%ADD16C,1.600000*%
%TD*%
%TA.AperFunction,ComponentPad*%
%ADD17O,1.400000X1.400000*%
%TD*%
%TA.AperFunction,ComponentPad*%
%ADD18C,1.400000*%
%TD*%
%TA.AperFunction,ComponentPad*%
%ADD19R,1.050000X1.500000*%
%TD*%
%TA.AperFunction,ComponentPad*%
%ADD20O,1.050000X1.500000*%
%TD*%
%TA.AperFunction,ComponentPad*%
%ADD21O,2.200000X2.200000*%
%TD*%
%TA.AperFunction,ComponentPad*%
%ADD22R,2.200000X2.200000*%
%TD*%
%TA.AperFunction,ViaPad*%
%ADD23C,0.800000*%
%TD*%
%TA.AperFunction,Conductor*%
%ADD24C,0.800000*%
%TD*%
%TA.AperFunction,Conductor*%
%ADD25C,0.500000*%
%TD*%
%TA.AperFunction,Conductor*%
%ADD26C,0.254000*%
%TD*%
G04 APERTURE END LIST*
D10*
%TO.P,SW3,2*%
%TO.N,+12V*%
X48260000Y-72390000D03*
D11*
%TO.P,SW3,1*%
%TO.N,VCC*%
X45720000Y-72390000D03*
%TD*%
D10*
%TO.P,U3,4*%
%TO.N,+5V*%
X91440000Y-72390000D03*
%TO.P,U3,3*%
%TO.N,GND*%
X88900000Y-72390000D03*
%TO.P,U3,2*%
%TO.N,DIO*%
X86360000Y-72390000D03*
D11*
%TO.P,U3,1*%
%TO.N,CLK*%
X83820000Y-72390000D03*
%TD*%
D12*
%TO.P,U2,8*%
%TO.N,+5V*%
X78740000Y-91440000D03*
%TO.P,U2,4*%
%TO.N,GND*%
X71120000Y-99060000D03*
%TO.P,U2,7*%
%TO.N,DIO*%
X78740000Y-93980000D03*
%TO.P,U2,3*%
%TO.N,BUTTON_UP*%
X71120000Y-96520000D03*
%TO.P,U2,6*%
%TO.N,OUT2_IO*%
X78740000Y-96520000D03*
%TO.P,U2,2*%
%TO.N,CLK*%
X71120000Y-93980000D03*
%TO.P,U2,5*%
%TO.N,BUTTON_DOWN*%
X78740000Y-99060000D03*
D13*
%TO.P,U2,1*%
%TO.N,OUT1_IO*%
X71120000Y-91440000D03*
%TD*%
D14*
%TO.P,U1,3*%
%TO.N,+5V*%
X66040000Y-82550000D03*
%TO.P,U1,2*%
%TO.N,GND*%
X63500000Y-82550000D03*
D15*
%TO.P,U1,1*%
%TO.N,Net-(C1-Pad1)*%
X60960000Y-82550000D03*
%TD*%
D10*
%TO.P,SW2,2*%
%TO.N,GND*%
X77470000Y-72390000D03*
D11*
%TO.P,SW2,1*%
%TO.N,BUTTON_DOWN*%
X74930000Y-72390000D03*
%TD*%
D10*
%TO.P,SW1,2*%
%TO.N,GND*%
X69850000Y-72390000D03*
D11*
%TO.P,SW1,1*%
%TO.N,BUTTON_UP*%
X67310000Y-72390000D03*
%TD*%
D12*
%TO.P,R12,2*%
%TO.N,+5V*%
X87630000Y-83820000D03*
D16*
%TO.P,R12,1*%
%TO.N,BUTTON_DOWN*%
X87630000Y-91440000D03*
%TD*%
D12*
%TO.P,R11,2*%
%TO.N,+5V*%
X83820000Y-83820000D03*
D16*
%TO.P,R11,1*%
%TO.N,BUTTON_UP*%
X83820000Y-91440000D03*
%TD*%
D12*
%TO.P,R10,2*%
%TO.N,Net-(D2-Pad2)*%
X104140000Y-80010000D03*
D16*
%TO.P,R10,1*%
%TO.N,+5V*%
X96520000Y-80010000D03*
%TD*%
D17*
%TO.P,R9,2*%
%TO.N,Net-(Q4-Pad2)*%
X101600000Y-85090000D03*
D18*
%TO.P,R9,1*%
%TO.N,OUT1_IO*%
X101600000Y-90170000D03*
%TD*%
D12*
%TO.P,R8,2*%
%TO.N,+12V*%
X45720000Y-93980000D03*
D16*
%TO.P,R8,1*%
%TO.N,OUT1*%
X53340000Y-93980000D03*
%TD*%
D12*
%TO.P,R7,2*%
%TO.N,Net-(Q2-Pad1)*%
X85090000Y-107950000D03*
D16*
%TO.P,R7,1*%
%TO.N,GND*%
X85090000Y-100330000D03*
%TD*%
D12*
%TO.P,R6,2*%
%TO.N,OUT1_IO*%
X91440000Y-100330000D03*
D16*
%TO.P,R6,1*%
%TO.N,Net-(Q2-Pad1)*%
X91440000Y-107950000D03*
%TD*%
D12*
%TO.P,R5,2*%
%TO.N,+12V*%
X55880000Y-93980000D03*
D16*
%TO.P,R5,1*%
%TO.N,OUT2*%
X63500000Y-93980000D03*
%TD*%
D12*
%TO.P,R4,2*%
%TO.N,Net-(Q1-Pad1)*%
X57150000Y-106680000D03*
D16*
%TO.P,R4,1*%
%TO.N,GND*%
X64770000Y-106680000D03*
%TD*%
D12*
%TO.P,R3,2*%
%TO.N,Net-(D1-Pad2)*%
X114300000Y-80010000D03*
D16*
%TO.P,R3,1*%
%TO.N,+5V*%
X106680000Y-80010000D03*
%TD*%
D12*
%TO.P,R2,2*%
%TO.N,OUT2_IO*%
X76200000Y-106680000D03*
D16*
%TO.P,R2,1*%
%TO.N,Net-(Q1-Pad1)*%
X68580000Y-106680000D03*
%TD*%
D17*
%TO.P,R1,2*%
%TO.N,Net-(Q3-Pad2)*%
X113030000Y-85090000D03*
D18*
%TO.P,R1,1*%
%TO.N,OUT2_IO*%
X113030000Y-90170000D03*
%TD*%
D19*
%TO.P,Q4,1*%
%TO.N,Net-(D2-Pad2)*%
X95250000Y-86360000D03*
D20*
%TO.P,Q4,3*%
%TO.N,GND*%
X97790000Y-86360000D03*
%TO.P,Q4,2*%
%TO.N,Net-(Q4-Pad2)*%
X96520000Y-86360000D03*
%TD*%
D19*
%TO.P,Q3,1*%
%TO.N,Net-(D1-Pad2)*%
X106680000Y-86360000D03*
D20*
%TO.P,Q3,3*%
%TO.N,GND*%
X109220000Y-86360000D03*
%TO.P,Q3,2*%
%TO.N,Net-(Q3-Pad2)*%
X107950000Y-86360000D03*
%TD*%
D14*
%TO.P,Q2,3*%
%TO.N,GND*%
X52070000Y-100330000D03*
%TO.P,Q2,2*%
%TO.N,OUT1*%
X49530000Y-100330000D03*
D15*
%TO.P,Q2,1*%
%TO.N,Net-(Q2-Pad1)*%
X46990000Y-100330000D03*
%TD*%
D14*
%TO.P,Q1,3*%
%TO.N,GND*%
X63500000Y-100330000D03*
%TO.P,Q1,2*%
%TO.N,OUT2*%
X60960000Y-100330000D03*
D15*
%TO.P,Q1,1*%
%TO.N,Net-(Q1-Pad1)*%
X58420000Y-100330000D03*
%TD*%
D10*
%TO.P,J1,4*%
%TO.N,OUT2*%
X60960000Y-72390000D03*
%TO.P,J1,3*%
%TO.N,OUT1*%
X58420000Y-72390000D03*
%TO.P,J1,2*%
%TO.N,GND*%
X55880000Y-72390000D03*
D11*
%TO.P,J1,1*%
%TO.N,VCC*%
X53340000Y-72390000D03*
%TD*%
D21*
%TO.P,D3,2*%
%TO.N,+12V*%
X46990000Y-90170000D03*
D22*
%TO.P,D3,1*%
%TO.N,Net-(C1-Pad1)*%
X46990000Y-80010000D03*
%TD*%
D10*
%TO.P,D2,2*%
%TO.N,Net-(D2-Pad2)*%
X102870000Y-72390000D03*
D11*
%TO.P,D2,1*%
%TO.N,GND*%
X100330000Y-72390000D03*
%TD*%
D10*
%TO.P,D1,2*%
%TO.N,Net-(D1-Pad2)*%
X110490000Y-72390000D03*
D11*
%TO.P,D1,1*%
%TO.N,GND*%
X107950000Y-72390000D03*
%TD*%
D16*
%TO.P,C2,2*%
%TO.N,GND*%
X76740000Y-85090000D03*
%TO.P,C2,1*%
%TO.N,+5V*%
X78740000Y-85090000D03*
%TD*%
%TO.P,C1,2*%
%TO.N,GND*%
X54610000Y-81820000D03*
%TO.P,C1,1*%
%TO.N,Net-(C1-Pad1)*%
X54610000Y-83820000D03*
%TD*%
D23*
%TO.N,OUT1*%
X50800000Y-91440000D03*
X55880000Y-91440000D03*
%TO.N,DIO*%
X83185000Y-89535000D03*
X85725000Y-86360000D03*
%TO.N,CLK*%
X74295000Y-91440000D03*
%TO.N,BUTTON_DOWN*%
X80645000Y-81915000D03*
%TD*%
D24*
%TO.N,+5V*%
X78740000Y-85017998D02*
X78740000Y-85090000D01*
X76272002Y-82550000D02*
X78740000Y-85017998D01*
X66040000Y-82550000D02*
X76272002Y-82550000D01*
X82550000Y-85090000D02*
X83820000Y-83820000D01*
X78740000Y-85090000D02*
X82550000Y-85090000D01*
X83820000Y-83820000D02*
X87630000Y-83820000D01*
X92710000Y-83820000D02*
X96520000Y-80010000D01*
X87630000Y-83820000D02*
X92710000Y-83820000D01*
X105279999Y-81410001D02*
X106680000Y-80010000D01*
X97920001Y-81410001D02*
X105279999Y-81410001D01*
X96520000Y-80010000D02*
X97920001Y-81410001D01*
%TO.N,OUT1*%
X50800000Y-91440000D02*
X55880000Y-91440000D01*
D25*
%TO.N,Net-(Q2-Pad1)*%
X46990000Y-100330000D02*
X50165000Y-103505000D01*
X80645000Y-103505000D02*
X85090000Y-107950000D01*
X50165000Y-103505000D02*
X80645000Y-103505000D01*
X85090000Y-107950000D02*
X91440000Y-107950000D01*
%TO.N,DIO*%
X83185000Y-89535000D02*
X83185000Y-88900000D01*
X83185000Y-88900000D02*
X85725000Y-86360000D01*
%TO.N,CLK*%
X71120000Y-93980000D02*
X72390000Y-93980000D01*
X72390000Y-93980000D02*
X74295000Y-92075000D01*
X74295000Y-92075000D02*
X74295000Y-91440000D01*
%TO.N,Net-(Q3-Pad2)*%
X113030000Y-85090000D02*
X110490000Y-85090000D01*
X110490000Y-85090000D02*
X109855000Y-84455000D01*
X107950000Y-85110000D02*
X107950000Y-86360000D01*
X108605000Y-84455000D02*
X107950000Y-85110000D01*
X109855000Y-84455000D02*
X108605000Y-84455000D01*
%TO.N,Net-(Q4-Pad2)*%
X101600000Y-85090000D02*
X99060000Y-85090000D01*
X99060000Y-85090000D02*
X98425000Y-84455000D01*
X96520000Y-85110000D02*
X96520000Y-86360000D01*
X97175000Y-84455000D02*
X96520000Y-85110000D01*
X98425000Y-84455000D02*
X97175000Y-84455000D01*
%TO.N,OUT2_IO*%
X113030000Y-90170000D02*
X113030000Y-92710000D01*
X109220000Y-96520000D02*
X78740000Y-96520000D01*
X113030000Y-92710000D02*
X109220000Y-96520000D01*
%TO.N,OUT1_IO*%
X71120000Y-91440000D02*
X70485000Y-91440000D01*
X71120000Y-91440000D02*
X69215000Y-93345000D01*
X69215000Y-93345000D02*
X69215000Y-100330000D01*
X88965010Y-102804990D02*
X91440000Y-100330000D01*
X71689990Y-102804990D02*
X88965010Y-102804990D01*
X69215000Y-100330000D02*
X71689990Y-102804990D01*
%TO.N,BUTTON_UP*%
X72409999Y-95230001D02*
X80029999Y-95230001D01*
X71120000Y-96520000D02*
X72409999Y-95230001D01*
X80029999Y-95230001D02*
X83820000Y-91440000D01*
%TO.N,BUTTON_DOWN*%
X74930000Y-72390000D02*
X74930000Y-76200000D01*
X74930000Y-76200000D02*
X80645000Y-81915000D01*
D24*
%TO.N,Net-(C1-Pad1)*%
X46990000Y-80010000D02*
X49530000Y-80010000D01*
X53340000Y-83820000D02*
X54610000Y-83820000D01*
X49530000Y-80010000D02*
X53340000Y-83820000D01*
X59690000Y-83820000D02*
X60960000Y-82550000D01*
X54610000Y-83820000D02*
X59690000Y-83820000D01*
%TD*%
D26*
%TO.N,GND*%
G36*
X117450001Y-66007581D02*
G01*
X117450000Y-73627581D01*
X117450000Y-73627582D01*
X117450001Y-113640000D01*
X42570000Y-113640000D01*
X42570000Y-109779872D01*
X43765000Y-109779872D01*
X43765000Y-110220128D01*
X43850890Y-110651925D01*
X44019369Y-111058669D01*
X44263962Y-111424729D01*
X44575271Y-111736038D01*
X44941331Y-111980631D01*
X45348075Y-112149110D01*
X45779872Y-112235000D01*
X46220128Y-112235000D01*
X46651925Y-112149110D01*
X47058669Y-111980631D01*
X47424729Y-111736038D01*
X47736038Y-111424729D01*
X47980631Y-111058669D01*
X48149110Y-110651925D01*
X48235000Y-110220128D01*
X48235000Y-109779872D01*
X111765000Y-109779872D01*
X111765000Y-110220128D01*
X111850890Y-110651925D01*
X112019369Y-111058669D01*
X112263962Y-111424729D01*
X112575271Y-111736038D01*
X112941331Y-111980631D01*
X113348075Y-112149110D01*
X113779872Y-112235000D01*
X114220128Y-112235000D01*
X114651925Y-112149110D01*
X115058669Y-111980631D01*
X115424729Y-111736038D01*
X115736038Y-111424729D01*
X115980631Y-111058669D01*
X116149110Y-110651925D01*
X116235000Y-110220128D01*
X116235000Y-109779872D01*
X116149110Y-109348075D01*
X115980631Y-108941331D01*
X115736038Y-108575271D01*
X115424729Y-108263962D01*
X115058669Y-108019369D01*
X114651925Y-107850890D01*
X114220128Y-107765000D01*
X113779872Y-107765000D01*
X113348075Y-107850890D01*
X112941331Y-108019369D01*
X112575271Y-108263962D01*
X112263962Y-108575271D01*
X112019369Y-108941331D01*
X111850890Y-109348075D01*
X111765000Y-109779872D01*
X48235000Y-109779872D01*
X48149110Y-109348075D01*
X47980631Y-108941331D01*
X47736038Y-108575271D01*
X47424729Y-108263962D01*
X47058669Y-108019369D01*
X46651925Y-107850890D01*
X46220128Y-107765000D01*
X45779872Y-107765000D01*
X45348075Y-107850890D01*
X44941331Y-108019369D01*
X44575271Y-108263962D01*
X44263962Y-108575271D01*
X44019369Y-108941331D01*
X43850890Y-109348075D01*
X43765000Y-109779872D01*
X42570000Y-109779872D01*
X42570000Y-106538665D01*
X55715000Y-106538665D01*
X55715000Y-106821335D01*
X55770147Y-107098574D01*
X55878320Y-107359727D01*
X56035363Y-107594759D01*
X56235241Y-107794637D01*
X56470273Y-107951680D01*
X56731426Y-108059853D01*
X57008665Y-108115000D01*
X57291335Y-108115000D01*
X57568574Y-108059853D01*
X57829727Y-107951680D01*
X58064759Y-107794637D01*
X58186694Y-107672702D01*
X63956903Y-107672702D01*
X64028486Y-107916671D01*
X64283996Y-108037571D01*
X64558184Y-108106300D01*
X64840512Y-108120217D01*
X65120130Y-108078787D01*
X65386292Y-107983603D01*
X65511514Y-107916671D01*
X65583097Y-107672702D01*
X64770000Y-106859605D01*
X63956903Y-107672702D01*
X58186694Y-107672702D01*
X58264637Y-107594759D01*
X58421680Y-107359727D01*
X58529853Y-107098574D01*
X58585000Y-106821335D01*
X58585000Y-106750512D01*
X63329783Y-106750512D01*
X63371213Y-107030130D01*
X63466397Y-107296292D01*
X63533329Y-107421514D01*
X63777298Y-107493097D01*
X64590395Y-106680000D01*
X64949605Y-106680000D01*
X65762702Y-107493097D01*
X66006671Y-107421514D01*
X66127571Y-107166004D01*
X66196300Y-106891816D01*
X66210217Y-106609488D01*
X66199724Y-106538665D01*
X67145000Y-106538665D01*
X67145000Y-106821335D01*
X67200147Y-107098574D01*
X67308320Y-107359727D01*
X67465363Y-107594759D01*
X67665241Y-107794637D01*
X67900273Y-107951680D01*
X68161426Y-108059853D01*
X68438665Y-108115000D01*
X68721335Y-108115000D01*
X68998574Y-108059853D01*
X69259727Y-107951680D01*
X69494759Y-107794637D01*
X69694637Y-107594759D01*
X69851680Y-107359727D01*
X69959853Y-107098574D01*
X70015000Y-106821335D01*
X70015000Y-106538665D01*
X74765000Y-106538665D01*
X74765000Y-106821335D01*
X74820147Y-107098574D01*
X74928320Y-107359727D01*
X75085363Y-107594759D01*
X75285241Y-107794637D01*
X75520273Y-107951680D01*
X75781426Y-108059853D01*
X76058665Y-108115000D01*
X76341335Y-108115000D01*
X76618574Y-108059853D01*
X76879727Y-107951680D01*
X77114759Y-107794637D01*
X77314637Y-107594759D01*
X77471680Y-107359727D01*
X77579853Y-107098574D01*
X77635000Y-106821335D01*
X77635000Y-106538665D01*
X77579853Y-106261426D01*
X77471680Y-106000273D01*
X77314637Y-105765241D01*
X77114759Y-105565363D01*
X76879727Y-105408320D01*
X76618574Y-105300147D01*
X76341335Y-105245000D01*
X76058665Y-105245000D01*
X75781426Y-105300147D01*
X75520273Y-105408320D01*
X75285241Y-105565363D01*
X75085363Y-105765241D01*
X74928320Y-106000273D01*
X74820147Y-106261426D01*
X74765000Y-106538665D01*
X70015000Y-106538665D01*
X69959853Y-106261426D01*
X69851680Y-106000273D01*
X69694637Y-105765241D01*
X69494759Y-105565363D01*
X69259727Y-105408320D01*
X68998574Y-105300147D01*
X68721335Y-105245000D01*
X68438665Y-105245000D01*
X68161426Y-105300147D01*
X67900273Y-105408320D01*
X67665241Y-105565363D01*
X67465363Y-105765241D01*
X67308320Y-106000273D01*
X67200147Y-106261426D01*
X67145000Y-106538665D01*
X66199724Y-106538665D01*
X66168787Y-106329870D01*
X66073603Y-106063708D01*
X66006671Y-105938486D01*
X65762702Y-105866903D01*
X64949605Y-106680000D01*
X64590395Y-106680000D01*
X63777298Y-105866903D01*
X63533329Y-105938486D01*
X63412429Y-106193996D01*
X63343700Y-106468184D01*
X63329783Y-106750512D01*
X58585000Y-106750512D01*
X58585000Y-106538665D01*
X58529853Y-106261426D01*
X58421680Y-106000273D01*
X58264637Y-105765241D01*
X58186694Y-105687298D01*
X63956903Y-105687298D01*
X64770000Y-106500395D01*
X65583097Y-105687298D01*
X65511514Y-105443329D01*
X65256004Y-105322429D01*
X64981816Y-105253700D01*
X64699488Y-105239783D01*
X64419870Y-105281213D01*
X64153708Y-105376397D01*
X64028486Y-105443329D01*
X63956903Y-105687298D01*
X58186694Y-105687298D01*
X58064759Y-105565363D01*
X57829727Y-105408320D01*
X57568574Y-105300147D01*
X57291335Y-105245000D01*
X57008665Y-105245000D01*
X56731426Y-105300147D01*
X56470273Y-105408320D01*
X56235241Y-105565363D01*
X56035363Y-105765241D01*
X55878320Y-106000273D01*
X55770147Y-106261426D01*
X55715000Y-106538665D01*
X42570000Y-106538665D01*
X42570000Y-99330000D01*
X45399428Y-99330000D01*
X45399428Y-101330000D01*
X45411688Y-101454482D01*
X45447998Y-101574180D01*
X45506963Y-101684494D01*
X45586315Y-101781185D01*
X45683006Y-101860537D01*
X45793320Y-101919502D01*
X45913018Y-101955812D01*
X46037500Y-101968072D01*
X47376494Y-101968072D01*
X49508470Y-104100049D01*
X49536183Y-104133817D01*
X49569951Y-104161530D01*
X49569953Y-104161532D01*
X49641452Y-104220210D01*
X49670941Y-104244411D01*
X49824687Y-104326589D01*
X49991510Y-104377195D01*
X50121523Y-104390000D01*
X50121533Y-104390000D01*
X50164999Y-104394281D01*
X50208466Y-104390000D01*
X80278422Y-104390000D01*
X83661983Y-107773561D01*
X83655000Y-107808665D01*
X83655000Y-108091335D01*
X83710147Y-108368574D01*
X83818320Y-108629727D01*
X83975363Y-108864759D01*
X84175241Y-109064637D01*
X84410273Y-109221680D01*
X84671426Y-109329853D01*
X84948665Y-109385000D01*
X85231335Y-109385000D01*
X85508574Y-109329853D01*
X85769727Y-109221680D01*
X86004759Y-109064637D01*
X86204637Y-108864759D01*
X86224521Y-108835000D01*
X90305479Y-108835000D01*
X90325363Y-108864759D01*
X90525241Y-109064637D01*
X90760273Y-109221680D01*
X91021426Y-109329853D01*
X91298665Y-109385000D01*
X91581335Y-109385000D01*
X91858574Y-109329853D01*
X92119727Y-109221680D01*
X92354759Y-109064637D01*
X92554637Y-108864759D01*
X92711680Y-108629727D01*
X92819853Y-108368574D01*
X92875000Y-108091335D01*
X92875000Y-107808665D01*
X92819853Y-107531426D01*
X92711680Y-107270273D01*
X92554637Y-107035241D01*
X92354759Y-106835363D01*
X92119727Y-106678320D01*
X91858574Y-106570147D01*
X91581335Y-106515000D01*
X91298665Y-106515000D01*
X91021426Y-106570147D01*
X90760273Y-106678320D01*
X90525241Y-106835363D01*
X90325363Y-107035241D01*
X90305479Y-107065000D01*
X86224521Y-107065000D01*
X86204637Y-107035241D01*
X86004759Y-106835363D01*
X85769727Y-106678320D01*
X85508574Y-106570147D01*
X85231335Y-106515000D01*
X84948665Y-106515000D01*
X84913561Y-106521983D01*
X82081568Y-103689990D01*
X88921541Y-103689990D01*
X88965010Y-103694271D01*
X89008479Y-103689990D01*
X89008487Y-103689990D01*
X89138500Y-103677185D01*
X89305323Y-103626579D01*
X89459069Y-103544401D01*
X89593827Y-103433807D01*
X89621544Y-103400034D01*
X91263561Y-101758017D01*
X91298665Y-101765000D01*
X91581335Y-101765000D01*
X91858574Y-101709853D01*
X92119727Y-101601680D01*
X92354759Y-101444637D01*
X92554637Y-101244759D01*
X92711680Y-101009727D01*
X92819853Y-100748574D01*
X92875000Y-100471335D01*
X92875000Y-100188665D01*
X92819853Y-99911426D01*
X92711680Y-99650273D01*
X92554637Y-99415241D01*
X92354759Y-99215363D01*
X92119727Y-99058320D01*
X91858574Y-98950147D01*
X91581335Y-98895000D01*
X91298665Y-98895000D01*
X91021426Y-98950147D01*
X90760273Y-99058320D01*
X90525241Y-99215363D01*
X90325363Y-99415241D01*
X90168320Y-99650273D01*
X90060147Y-99911426D01*
X90005000Y-100188665D01*
X90005000Y-100471335D01*
X90011983Y-100506439D01*
X88598432Y-101919990D01*
X72056569Y-101919990D01*
X71459281Y-101322702D01*
X84276903Y-101322702D01*
X84348486Y-101566671D01*
X84603996Y-101687571D01*
X84878184Y-101756300D01*
X85160512Y-101770217D01*
X85440130Y-101728787D01*
X85706292Y-101633603D01*
X85831514Y-101566671D01*
X85903097Y-101322702D01*
X85090000Y-100509605D01*
X84276903Y-101322702D01*
X71459281Y-101322702D01*
X70474963Y-100338385D01*
X70506119Y-100357070D01*
X70770960Y-100451909D01*
X70993000Y-100330624D01*
X70993000Y-99187000D01*
X71247000Y-99187000D01*
X71247000Y-100330624D01*
X71469040Y-100451909D01*
X71733881Y-100357070D01*
X71975131Y-100212385D01*
X72183519Y-100023414D01*
X72351037Y-99797420D01*
X72471246Y-99543087D01*
X72511904Y-99409039D01*
X72389915Y-99187000D01*
X71247000Y-99187000D01*
X70993000Y-99187000D01*
X70973000Y-99187000D01*
X70973000Y-98933000D01*
X70993000Y-98933000D01*
X70993000Y-98913000D01*
X71247000Y-98913000D01*
X71247000Y-98933000D01*
X72389915Y-98933000D01*
X72511904Y-98710961D01*
X72471246Y-98576913D01*
X72351037Y-98322580D01*
X72183519Y-98096586D01*
X71975131Y-97907615D01*
X71789135Y-97796067D01*
X71799727Y-97791680D01*
X72034759Y-97634637D01*
X72234637Y-97434759D01*
X72391680Y-97199727D01*
X72499853Y-96938574D01*
X72555000Y-96661335D01*
X72555000Y-96378665D01*
X72548017Y-96343561D01*
X72776578Y-96115001D01*
X77357447Y-96115001D01*
X77305000Y-96378665D01*
X77305000Y-96661335D01*
X77360147Y-96938574D01*
X77468320Y-97199727D01*
X77625363Y-97434759D01*
X77825241Y-97634637D01*
X78057759Y-97790000D01*
X77825241Y-97945363D01*
X77625363Y-98145241D01*
X77468320Y-98380273D01*
X77360147Y-98641426D01*
X77305000Y-98918665D01*
X77305000Y-99201335D01*
X77360147Y-99478574D01*
X77468320Y-99739727D01*
X77625363Y-99974759D01*
X77825241Y-100174637D01*
X78060273Y-100331680D01*
X78321426Y-100439853D01*
X78598665Y-100495000D01*
X78881335Y-100495000D01*
X79158574Y-100439853D01*
X79253551Y-100400512D01*
X83649783Y-100400512D01*
X83691213Y-100680130D01*
X83786397Y-100946292D01*
X83853329Y-101071514D01*
X84097298Y-101143097D01*
X84910395Y-100330000D01*
X85269605Y-100330000D01*
X86082702Y-101143097D01*
X86326671Y-101071514D01*
X86447571Y-100816004D01*
X86516300Y-100541816D01*
X86530217Y-100259488D01*
X86488787Y-99979870D01*
X86393603Y-99713708D01*
X86326671Y-99588486D01*
X86082702Y-99516903D01*
X85269605Y-100330000D01*
X84910395Y-100330000D01*
X84097298Y-99516903D01*
X83853329Y-99588486D01*
X83732429Y-99843996D01*
X83663700Y-100118184D01*
X83649783Y-100400512D01*
X79253551Y-100400512D01*
X79419727Y-100331680D01*
X79654759Y-100174637D01*
X79854637Y-99974759D01*
X80011680Y-99739727D01*
X80119853Y-99478574D01*
X80147954Y-99337298D01*
X84276903Y-99337298D01*
X85090000Y-100150395D01*
X85903097Y-99337298D01*
X85831514Y-99093329D01*
X85576004Y-98972429D01*
X85301816Y-98903700D01*
X85019488Y-98889783D01*
X84739870Y-98931213D01*
X84473708Y-99026397D01*
X84348486Y-99093329D01*
X84276903Y-99337298D01*
X80147954Y-99337298D01*
X80175000Y-99201335D01*
X80175000Y-98918665D01*
X80119853Y-98641426D01*
X80011680Y-98380273D01*
X79854637Y-98145241D01*
X79654759Y-97945363D01*
X79422241Y-97790000D01*
X79654759Y-97634637D01*
X79854637Y-97434759D01*
X79874521Y-97405000D01*
X109176531Y-97405000D01*
X109220000Y-97409281D01*
X109263469Y-97405000D01*
X109263477Y-97405000D01*
X109393490Y-97392195D01*
X109560313Y-97341589D01*
X109714059Y-97259411D01*
X109848817Y-97148817D01*
X109876534Y-97115044D01*
X113625049Y-93366530D01*
X113658817Y-93338817D01*
X113769411Y-93204059D01*
X113793810Y-93158411D01*
X113851589Y-93050314D01*
X113902195Y-92883490D01*
X113903980Y-92865363D01*
X113915000Y-92753477D01*
X113915000Y-92753469D01*
X113919281Y-92710000D01*
X113915000Y-92666531D01*
X113915000Y-91172975D01*
X114066962Y-91021013D01*
X114213061Y-90802359D01*
X114313696Y-90559405D01*
X114365000Y-90301486D01*
X114365000Y-90038514D01*
X114313696Y-89780595D01*
X114213061Y-89537641D01*
X114066962Y-89318987D01*
X113881013Y-89133038D01*
X113662359Y-88986939D01*
X113419405Y-88886304D01*
X113161486Y-88835000D01*
X112898514Y-88835000D01*
X112640595Y-88886304D01*
X112397641Y-88986939D01*
X112178987Y-89133038D01*
X111993038Y-89318987D01*
X111846939Y-89537641D01*
X111746304Y-89780595D01*
X111695000Y-90038514D01*
X111695000Y-90301486D01*
X111746304Y-90559405D01*
X111846939Y-90802359D01*
X111993038Y-91021013D01*
X112145000Y-91172975D01*
X112145001Y-92343420D01*
X108853422Y-95635000D01*
X80876578Y-95635000D01*
X83643561Y-92868017D01*
X83678665Y-92875000D01*
X83961335Y-92875000D01*
X84238574Y-92819853D01*
X84499727Y-92711680D01*
X84734759Y-92554637D01*
X84934637Y-92354759D01*
X85091680Y-92119727D01*
X85199853Y-91858574D01*
X85255000Y-91581335D01*
X85255000Y-91298665D01*
X86195000Y-91298665D01*
X86195000Y-91581335D01*
X86250147Y-91858574D01*
X86358320Y-92119727D01*
X86515363Y-92354759D01*
X86715241Y-92554637D01*
X86950273Y-92711680D01*
X87211426Y-92819853D01*
X87488665Y-92875000D01*
X87771335Y-92875000D01*
X88048574Y-92819853D01*
X88309727Y-92711680D01*
X88544759Y-92554637D01*
X88744637Y-92354759D01*
X88901680Y-92119727D01*
X89009853Y-91858574D01*
X89065000Y-91581335D01*
X89065000Y-91298665D01*
X89009853Y-91021426D01*
X88901680Y-90760273D01*
X88744637Y-90525241D01*
X88544759Y-90325363D01*
X88309727Y-90168320D01*
X88048574Y-90060147D01*
X87939820Y-90038514D01*
X100265000Y-90038514D01*
X100265000Y-90301486D01*
X100316304Y-90559405D01*
X100416939Y-90802359D01*
X100563038Y-91021013D01*
X100748987Y-91206962D01*
X100967641Y-91353061D01*
X101210595Y-91453696D01*
X101468514Y-91505000D01*
X101731486Y-91505000D01*
X101989405Y-91453696D01*
X102232359Y-91353061D01*
X102451013Y-91206962D01*
X102636962Y-91021013D01*
X102783061Y-90802359D01*
X102883696Y-90559405D01*
X102935000Y-90301486D01*
X102935000Y-90038514D01*
X102883696Y-89780595D01*
X102783061Y-89537641D01*
X102636962Y-89318987D01*
X102451013Y-89133038D01*
X102232359Y-88986939D01*
X101989405Y-88886304D01*
X101731486Y-88835000D01*
X101468514Y-88835000D01*
X101210595Y-88886304D01*
X100967641Y-88986939D01*
X100748987Y-89133038D01*
X100563038Y-89318987D01*
X100416939Y-89537641D01*
X100316304Y-89780595D01*
X100265000Y-90038514D01*
X87939820Y-90038514D01*
X87771335Y-90005000D01*
X87488665Y-90005000D01*
X87211426Y-90060147D01*
X86950273Y-90168320D01*
X86715241Y-90325363D01*
X86515363Y-90525241D01*
X86358320Y-90760273D01*
X86250147Y-91021426D01*
X86195000Y-91298665D01*
X85255000Y-91298665D01*
X85199853Y-91021426D01*
X85091680Y-90760273D01*
X84934637Y-90525241D01*
X84734759Y-90325363D01*
X84499727Y-90168320D01*
X84238574Y-90060147D01*
X84097625Y-90032110D01*
X84102205Y-90025256D01*
X84180226Y-89836898D01*
X84220000Y-89636939D01*
X84220000Y-89433061D01*
X84180226Y-89233102D01*
X84157746Y-89178832D01*
X85970044Y-87366535D01*
X86026898Y-87355226D01*
X86215256Y-87277205D01*
X86384774Y-87163937D01*
X86528937Y-87019774D01*
X86642205Y-86850256D01*
X86720226Y-86661898D01*
X86760000Y-86461939D01*
X86760000Y-86258061D01*
X86720226Y-86058102D01*
X86642205Y-85869744D01*
X86528937Y-85700226D01*
X86438711Y-85610000D01*
X94086928Y-85610000D01*
X94086928Y-87110000D01*
X94099188Y-87234482D01*
X94135498Y-87354180D01*
X94194463Y-87464494D01*
X94273815Y-87561185D01*
X94370506Y-87640537D01*
X94480820Y-87699502D01*
X94600518Y-87735812D01*
X94725000Y-87748072D01*
X95775000Y-87748072D01*
X95899482Y-87735812D01*
X96019180Y-87699502D01*
X96083902Y-87664907D01*
X96292601Y-87728215D01*
X96520000Y-87750612D01*
X96747400Y-87728215D01*
X96966060Y-87661885D01*
X97154669Y-87561071D01*
X97213118Y-87602275D01*
X97422663Y-87695272D01*
X97484190Y-87703964D01*
X97663000Y-87578163D01*
X97663000Y-86813108D01*
X97663215Y-86812399D01*
X97680000Y-86641978D01*
X97680000Y-86487000D01*
X97917000Y-86487000D01*
X97917000Y-87578163D01*
X98095810Y-87703964D01*
X98157337Y-87695272D01*
X98366882Y-87602275D01*
X98554258Y-87470184D01*
X98712264Y-87304076D01*
X98834828Y-87110334D01*
X98917239Y-86896404D01*
X98956331Y-86670507D01*
X98796598Y-86487000D01*
X97917000Y-86487000D01*
X97680000Y-86487000D01*
X97680000Y-86213000D01*
X97917000Y-86213000D01*
X97917000Y-86233000D01*
X98796598Y-86233000D01*
X98956331Y-86049493D01*
X98942173Y-85967677D01*
X99016523Y-85975000D01*
X99016531Y-85975000D01*
X99060000Y-85979281D01*
X99103469Y-85975000D01*
X100597025Y-85975000D01*
X100748987Y-86126962D01*
X100967641Y-86273061D01*
X101210595Y-86373696D01*
X101468514Y-86425000D01*
X101731486Y-86425000D01*
X101989405Y-86373696D01*
X102232359Y-86273061D01*
X102451013Y-86126962D01*
X102636962Y-85941013D01*
X102783061Y-85722359D01*
X102829601Y-85610000D01*
X105516928Y-85610000D01*
X105516928Y-87110000D01*
X105529188Y-87234482D01*
X105565498Y-87354180D01*
X105624463Y-87464494D01*
X105703815Y-87561185D01*
X105800506Y-87640537D01*
X105910820Y-87699502D01*
X106030518Y-87735812D01*
X106155000Y-87748072D01*
X107205000Y-87748072D01*
X107329482Y-87735812D01*
X107449180Y-87699502D01*
X107513902Y-87664907D01*
X107722601Y-87728215D01*
X107950000Y-87750612D01*
X108177400Y-87728215D01*
X108396060Y-87661885D01*
X108584669Y-87561071D01*
X108643118Y-87602275D01*
X108852663Y-87695272D01*
X108914190Y-87703964D01*
X109093000Y-87578163D01*
X109093000Y-86813108D01*
X109093215Y-86812399D01*
X109110000Y-86641978D01*
X109110000Y-86487000D01*
X109347000Y-86487000D01*
X109347000Y-87578163D01*
X109525810Y-87703964D01*
X109587337Y-87695272D01*
X109796882Y-87602275D01*
X109984258Y-87470184D01*
X110142264Y-87304076D01*
X110264828Y-87110334D01*
X110347239Y-86896404D01*
X110386331Y-86670507D01*
X110226598Y-86487000D01*
X109347000Y-86487000D01*
X109110000Y-86487000D01*
X109110000Y-86213000D01*
X109347000Y-86213000D01*
X109347000Y-86233000D01*
X110226598Y-86233000D01*
X110386331Y-86049493D01*
X110372173Y-85967677D01*
X110446523Y-85975000D01*
X110446531Y-85975000D01*
X110490000Y-85979281D01*
X110533469Y-85975000D01*
X112027025Y-85975000D01*
X112178987Y-86126962D01*
X112397641Y-86273061D01*
X112640595Y-86373696D01*
X112898514Y-86425000D01*
X113161486Y-86425000D01*
X113419405Y-86373696D01*
X113662359Y-86273061D01*
X113881013Y-86126962D01*
X114066962Y-85941013D01*
X114213061Y-85722359D01*
X114313696Y-85479405D01*
X114365000Y-85221486D01*
X114365000Y-84958514D01*
X114313696Y-84700595D01*
X114213061Y-84457641D01*
X114066962Y-84238987D01*
X113881013Y-84053038D01*
X113662359Y-83906939D01*
X113419405Y-83806304D01*
X113161486Y-83755000D01*
X112898514Y-83755000D01*
X112640595Y-83806304D01*
X112397641Y-83906939D01*
X112178987Y-84053038D01*
X112027025Y-84205000D01*
X110856579Y-84205000D01*
X110511534Y-83859956D01*
X110483817Y-83826183D01*
X110349059Y-83715589D01*
X110195313Y-83633411D01*
X110028490Y-83582805D01*
X109898477Y-83570000D01*
X109898469Y-83570000D01*
X109855000Y-83565719D01*
X109811531Y-83570000D01*
X108648469Y-83570000D01*
X108605000Y-83565719D01*
X108561531Y-83570000D01*
X108561523Y-83570000D01*
X108431510Y-83582805D01*
X108264687Y-83633411D01*
X108208020Y-83663700D01*
X108110941Y-83715589D01*
X108009953Y-83798468D01*
X108009951Y-83798470D01*
X107976183Y-83826183D01*
X107948470Y-83859951D01*
X107354956Y-84453466D01*
X107321183Y-84481183D01*
X107210589Y-84615942D01*
X107128411Y-84769688D01*
X107077805Y-84936511D01*
X107074317Y-84971928D01*
X106155000Y-84971928D01*
X106030518Y-84984188D01*
X105910820Y-85020498D01*
X105800506Y-85079463D01*
X105703815Y-85158815D01*
X105624463Y-85255506D01*
X105565498Y-85365820D01*
X105529188Y-85485518D01*
X105516928Y-85610000D01*
X102829601Y-85610000D01*
X102883696Y-85479405D01*
X102935000Y-85221486D01*
X102935000Y-84958514D01*
X102883696Y-84700595D01*
X102783061Y-84457641D01*
X102636962Y-84238987D01*
X102451013Y-84053038D01*
X102232359Y-83906939D01*
X101989405Y-83806304D01*
X101731486Y-83755000D01*
X101468514Y-83755000D01*
X101210595Y-83806304D01*
X100967641Y-83906939D01*
X100748987Y-84053038D01*
X100597025Y-84205000D01*
X99426579Y-84205000D01*
X99081534Y-83859956D01*
X99053817Y-83826183D01*
X98919059Y-83715589D01*
X98765313Y-83633411D01*
X98598490Y-83582805D01*
X98468477Y-83570000D01*
X98468469Y-83570000D01*
X98425000Y-83565719D01*
X98381531Y-83570000D01*
X97218469Y-83570000D01*
X97175000Y-83565719D01*
X97131531Y-83570000D01*
X97131523Y-83570000D01*
X97001510Y-83582805D01*
X96834687Y-83633411D01*
X96778020Y-83663700D01*
X96680941Y-83715589D01*
X96579953Y-83798468D01*
X96579951Y-83798470D01*
X96546183Y-83826183D01*
X96518470Y-83859951D01*
X95924956Y-84453466D01*
X95891183Y-84481183D01*
X95780589Y-84615942D01*
X95698411Y-84769688D01*
X95647805Y-84936511D01*
X95644317Y-84971928D01*
X94725000Y-84971928D01*
X94600518Y-84984188D01*
X94480820Y-85020498D01*
X94370506Y-85079463D01*
X94273815Y-85158815D01*
X94194463Y-85255506D01*
X94135498Y-85365820D01*
X94099188Y-85485518D01*
X94086928Y-85610000D01*
X86438711Y-85610000D01*
X86384774Y-85556063D01*
X86215256Y-85442795D01*
X86026898Y-85364774D01*
X85826939Y-85325000D01*
X85623061Y-85325000D01*
X85423102Y-85364774D01*
X85234744Y-85442795D01*
X85065226Y-85556063D01*
X84921063Y-85700226D01*
X84807795Y-85869744D01*
X84729774Y-86058102D01*
X84718465Y-86114956D01*
X82589951Y-88243471D01*
X82556184Y-88271183D01*
X82528471Y-88304951D01*
X82528468Y-88304954D01*
X82445590Y-88405941D01*
X82363412Y-88559687D01*
X82312805Y-88726510D01*
X82300000Y-88856523D01*
X82300000Y-88856531D01*
X82295719Y-88900000D01*
X82300000Y-88943469D01*
X82300000Y-88996546D01*
X82267795Y-89044744D01*
X82189774Y-89233102D01*
X82150000Y-89433061D01*
X82150000Y-89636939D01*
X82189774Y-89836898D01*
X82267795Y-90025256D01*
X82381063Y-90194774D01*
X82525226Y-90338937D01*
X82694744Y-90452205D01*
X82753897Y-90476707D01*
X82705363Y-90525241D01*
X82548320Y-90760273D01*
X82440147Y-91021426D01*
X82385000Y-91298665D01*
X82385000Y-91581335D01*
X82391983Y-91616439D01*
X80174130Y-93834292D01*
X80119853Y-93561426D01*
X80011680Y-93300273D01*
X79854637Y-93065241D01*
X79654759Y-92865363D01*
X79422241Y-92710000D01*
X79654759Y-92554637D01*
X79854637Y-92354759D01*
X80011680Y-92119727D01*
X80119853Y-91858574D01*
X80175000Y-91581335D01*
X80175000Y-91298665D01*
X80119853Y-91021426D01*
X80011680Y-90760273D01*
X79854637Y-90525241D01*
X79654759Y-90325363D01*
X79419727Y-90168320D01*
X79158574Y-90060147D01*
X78881335Y-90005000D01*
X78598665Y-90005000D01*
X78321426Y-90060147D01*
X78060273Y-90168320D01*
X77825241Y-90325363D01*
X77625363Y-90525241D01*
X77468320Y-90760273D01*
X77360147Y-91021426D01*
X77305000Y-91298665D01*
X77305000Y-91581335D01*
X77360147Y-91858574D01*
X77468320Y-92119727D01*
X77625363Y-92354759D01*
X77825241Y-92554637D01*
X78057759Y-92710000D01*
X77825241Y-92865363D01*
X77625363Y-93065241D01*
X77468320Y-93300273D01*
X77360147Y-93561426D01*
X77305000Y-93838665D01*
X77305000Y-94121335D01*
X77349491Y-94345001D01*
X73276577Y-94345001D01*
X74890050Y-92731529D01*
X74923817Y-92703817D01*
X75034411Y-92569059D01*
X75116589Y-92415313D01*
X75167195Y-92248490D01*
X75180000Y-92118477D01*
X75180000Y-92118469D01*
X75184281Y-92075000D01*
X75180000Y-92031531D01*
X75180000Y-91978454D01*
X75212205Y-91930256D01*
X75290226Y-91741898D01*
X75330000Y-91541939D01*
X75330000Y-91338061D01*
X75290226Y-91138102D01*
X75212205Y-90949744D01*
X75098937Y-90780226D01*
X74954774Y-90636063D01*
X74785256Y-90522795D01*
X74596898Y-90444774D01*
X74396939Y-90405000D01*
X74193061Y-90405000D01*
X73993102Y-90444774D01*
X73804744Y-90522795D01*
X73635226Y-90636063D01*
X73491063Y-90780226D01*
X73377795Y-90949744D01*
X73299774Y-91138102D01*
X73260000Y-91338061D01*
X73260000Y-91541939D01*
X73299774Y-91741898D01*
X73322253Y-91796168D01*
X72143909Y-92974513D01*
X72036039Y-92866643D01*
X72044482Y-92865812D01*
X72164180Y-92829502D01*
X72274494Y-92770537D01*
X72371185Y-92691185D01*
X72450537Y-92594494D01*
X72509502Y-92484180D01*
X72545812Y-92364482D01*
X72558072Y-92240000D01*
X72558072Y-90640000D01*
X72545812Y-90515518D01*
X72509502Y-90395820D01*
X72450537Y-90285506D01*
X72371185Y-90188815D01*
X72274494Y-90109463D01*
X72164180Y-90050498D01*
X72044482Y-90014188D01*
X71920000Y-90001928D01*
X70320000Y-90001928D01*
X70195518Y-90014188D01*
X70075820Y-90050498D01*
X69965506Y-90109463D01*
X69868815Y-90188815D01*
X69789463Y-90285506D01*
X69730498Y-90395820D01*
X69694188Y-90515518D01*
X69681928Y-90640000D01*
X69681928Y-91065044D01*
X69663411Y-91099687D01*
X69612805Y-91266510D01*
X69595718Y-91440000D01*
X69612805Y-91613490D01*
X69631920Y-91676502D01*
X68619956Y-92688466D01*
X68586183Y-92716183D01*
X68475589Y-92850942D01*
X68393411Y-93004688D01*
X68342805Y-93171511D01*
X68330000Y-93301524D01*
X68330000Y-93301531D01*
X68325719Y-93345000D01*
X68330000Y-93388469D01*
X68330001Y-100286521D01*
X68325719Y-100330000D01*
X68342805Y-100503490D01*
X68393412Y-100670313D01*
X68475590Y-100824059D01*
X68558468Y-100925046D01*
X68558469Y-100925047D01*
X68586184Y-100958817D01*
X68619951Y-100986529D01*
X70253421Y-102620000D01*
X50531579Y-102620000D01*
X49850722Y-101939143D01*
X50140449Y-101851255D01*
X50416235Y-101703845D01*
X50657963Y-101505463D01*
X50805162Y-101326100D01*
X50960563Y-101511315D01*
X51203077Y-101705969D01*
X51478906Y-101849571D01*
X51697020Y-101920563D01*
X51943000Y-101800594D01*
X51943000Y-100457000D01*
X52197000Y-100457000D01*
X52197000Y-101800594D01*
X52442980Y-101920563D01*
X52661094Y-101849571D01*
X52936923Y-101705969D01*
X53179437Y-101511315D01*
X53379316Y-101273089D01*
X53528879Y-101000446D01*
X53622378Y-100703863D01*
X53495570Y-100457000D01*
X52197000Y-100457000D01*
X51943000Y-100457000D01*
X51923000Y-100457000D01*
X51923000Y-100203000D01*
X51943000Y-100203000D01*
X51943000Y-98859406D01*
X52197000Y-98859406D01*
X52197000Y-100203000D01*
X53495570Y-100203000D01*
X53622378Y-99956137D01*
X53528879Y-99659554D01*
X53379316Y-99386911D01*
X53331566Y-99330000D01*
X56829428Y-99330000D01*
X56829428Y-101330000D01*
X56841688Y-101454482D01*
X56877998Y-101574180D01*
X56936963Y-101684494D01*
X57016315Y-101781185D01*
X57113006Y-101860537D01*
X57223320Y-101919502D01*
X57343018Y-101955812D01*
X57467500Y-101968072D01*
X59372500Y-101968072D01*
X59496982Y-101955812D01*
X59616680Y-101919502D01*
X59726994Y-101860537D01*
X59823685Y-101781185D01*
X59903037Y-101684494D01*
X59947905Y-101600553D01*
X60073766Y-101703845D01*
X60349552Y-101851255D01*
X60648797Y-101942030D01*
X60960000Y-101972681D01*
X61271204Y-101942030D01*
X61570449Y-101851255D01*
X61846235Y-101703845D01*
X62087963Y-101505463D01*
X62235162Y-101326100D01*
X62390563Y-101511315D01*
X62633077Y-101705969D01*
X62908906Y-101849571D01*
X63127020Y-101920563D01*
X63373000Y-101800594D01*
X63373000Y-100457000D01*
X63627000Y-100457000D01*
X63627000Y-101800594D01*
X63872980Y-101920563D01*
X64091094Y-101849571D01*
X64366923Y-101705969D01*
X64609437Y-101511315D01*
X64809316Y-101273089D01*
X64958879Y-101000446D01*
X65052378Y-100703863D01*
X64925570Y-100457000D01*
X63627000Y-100457000D01*
X63373000Y-100457000D01*
X63353000Y-100457000D01*
X63353000Y-100203000D01*
X63373000Y-100203000D01*
X63373000Y-98859406D01*
X63627000Y-98859406D01*
X63627000Y-100203000D01*
X64925570Y-100203000D01*
X65052378Y-99956137D01*
X64958879Y-99659554D01*
X64809316Y-99386911D01*
X64609437Y-99148685D01*
X64366923Y-98954031D01*
X64091094Y-98810429D01*
X63872980Y-98739437D01*
X63627000Y-98859406D01*
X63373000Y-98859406D01*
X63127020Y-98739437D01*
X62908906Y-98810429D01*
X62633077Y-98954031D01*
X62390563Y-99148685D01*
X62235163Y-99333899D01*
X62087963Y-99154537D01*
X61846234Y-98956155D01*
X61570448Y-98808745D01*
X61271203Y-98717970D01*
X60960000Y-98687319D01*
X60648796Y-98717970D01*
X60349551Y-98808745D01*
X60073765Y-98956155D01*
X59947905Y-99059446D01*
X59903037Y-98975506D01*
X59823685Y-98878815D01*
X59726994Y-98799463D01*
X59616680Y-98740498D01*
X59496982Y-98704188D01*
X59372500Y-98691928D01*
X57467500Y-98691928D01*
X57343018Y-98704188D01*
X57223320Y-98740498D01*
X57113006Y-98799463D01*
X57016315Y-98878815D01*
X56936963Y-98975506D01*
X56877998Y-99085820D01*
X56841688Y-99205518D01*
X56829428Y-99330000D01*
X53331566Y-99330000D01*
X53179437Y-99148685D01*
X52936923Y-98954031D01*
X52661094Y-98810429D01*
X52442980Y-98739437D01*
X52197000Y-98859406D01*
X51943000Y-98859406D01*
X51697020Y-98739437D01*
X51478906Y-98810429D01*
X51203077Y-98954031D01*
X50960563Y-99148685D01*
X50805163Y-99333899D01*
X50657963Y-99154537D01*
X50416234Y-98956155D01*
X50140448Y-98808745D01*
X49841203Y-98717970D01*
X49530000Y-98687319D01*
X49218796Y-98717970D01*
X48919551Y-98808745D01*
X48643765Y-98956155D01*
X48517905Y-99059446D01*
X48473037Y-98975506D01*
X48393685Y-98878815D01*
X48296994Y-98799463D01*
X48186680Y-98740498D01*
X48066982Y-98704188D01*
X47942500Y-98691928D01*
X46037500Y-98691928D01*
X45913018Y-98704188D01*
X45793320Y-98740498D01*
X45683006Y-98799463D01*
X45586315Y-98878815D01*
X45506963Y-98975506D01*
X45447998Y-99085820D01*
X45411688Y-99205518D01*
X45399428Y-99330000D01*
X42570000Y-99330000D01*
X42570000Y-93838665D01*
X44285000Y-93838665D01*
X44285000Y-94121335D01*
X44340147Y-94398574D01*
X44448320Y-94659727D01*
X44605363Y-94894759D01*
X44805241Y-95094637D01*
X45040273Y-95251680D01*
X45301426Y-95359853D01*
X45578665Y-95415000D01*
X45861335Y-95415000D01*
X46138574Y-95359853D01*
X46399727Y-95251680D01*
X46634759Y-95094637D01*
X46834637Y-94894759D01*
X46991680Y-94659727D01*
X47099853Y-94398574D01*
X47155000Y-94121335D01*
X47155000Y-93838665D01*
X51905000Y-93838665D01*
X51905000Y-94121335D01*
X51960147Y-94398574D01*
X52068320Y-94659727D01*
X52225363Y-94894759D01*
X52425241Y-95094637D01*
X52660273Y-95251680D01*
X52921426Y-95359853D01*
X53198665Y-95415000D01*
X53481335Y-95415000D01*
X53758574Y-95359853D01*
X54019727Y-95251680D01*
X54254759Y-95094637D01*
X54454637Y-94894759D01*
X54610000Y-94662241D01*
X54765363Y-94894759D01*
X54965241Y-95094637D01*
X55200273Y-95251680D01*
X55461426Y-95359853D01*
X55738665Y-95415000D01*
X56021335Y-95415000D01*
X56298574Y-95359853D01*
X56559727Y-95251680D01*
X56794759Y-95094637D01*
X56994637Y-94894759D01*
X57151680Y-94659727D01*
X57259853Y-94398574D01*
X57315000Y-94121335D01*
X57315000Y-93838665D01*
X62065000Y-93838665D01*
X62065000Y-94121335D01*
X62120147Y-94398574D01*
X62228320Y-94659727D01*
X62385363Y-94894759D01*
X62585241Y-95094637D01*
X62820273Y-95251680D01*
X63081426Y-95359853D01*
X63358665Y-95415000D01*
X63641335Y-95415000D01*
X63918574Y-95359853D01*
X64179727Y-95251680D01*
X64414759Y-95094637D01*
X64614637Y-94894759D01*
X64771680Y-94659727D01*
X64879853Y-94398574D01*
X64935000Y-94121335D01*
X64935000Y-93838665D01*
X64879853Y-93561426D01*
X64771680Y-93300273D01*
X64614637Y-93065241D01*
X64414759Y-92865363D01*
X64179727Y-92708320D01*
X63918574Y-92600147D01*
X63641335Y-92545000D01*
X63358665Y-92545000D01*
X63081426Y-92600147D01*
X62820273Y-92708320D01*
X62585241Y-92865363D01*
X62385363Y-93065241D01*
X62228320Y-93300273D01*
X62120147Y-93561426D01*
X62065000Y-93838665D01*
X57315000Y-93838665D01*
X57259853Y-93561426D01*
X57151680Y-93300273D01*
X56994637Y-93065241D01*
X56794759Y-92865363D01*
X56559727Y-92708320D01*
X56298574Y-92600147D01*
X56021335Y-92545000D01*
X55738665Y-92545000D01*
X55461426Y-92600147D01*
X55200273Y-92708320D01*
X54965241Y-92865363D01*
X54765363Y-93065241D01*
X54610000Y-93297759D01*
X54454637Y-93065241D01*
X54254759Y-92865363D01*
X54019727Y-92708320D01*
X53758574Y-92600147D01*
X53481335Y-92545000D01*
X53198665Y-92545000D01*
X52921426Y-92600147D01*
X52660273Y-92708320D01*
X52425241Y-92865363D01*
X52225363Y-93065241D01*
X52068320Y-93300273D01*
X51960147Y-93561426D01*
X51905000Y-93838665D01*
X47155000Y-93838665D01*
X47099853Y-93561426D01*
X46991680Y-93300273D01*
X46834637Y-93065241D01*
X46634759Y-92865363D01*
X46399727Y-92708320D01*
X46138574Y-92600147D01*
X45861335Y-92545000D01*
X45578665Y-92545000D01*
X45301426Y-92600147D01*
X45040273Y-92708320D01*
X44805241Y-92865363D01*
X44605363Y-93065241D01*
X44448320Y-93300273D01*
X44340147Y-93561426D01*
X44285000Y-93838665D01*
X42570000Y-93838665D01*
X42570000Y-89999117D01*
X45255000Y-89999117D01*
X45255000Y-90340883D01*
X45321675Y-90676081D01*
X45452463Y-90991831D01*
X45642337Y-91275998D01*
X45884002Y-91517663D01*
X46168169Y-91707537D01*
X46483919Y-91838325D01*
X46819117Y-91905000D01*
X47160883Y-91905000D01*
X47496081Y-91838325D01*
X47811831Y-91707537D01*
X48095998Y-91517663D01*
X48173661Y-91440000D01*
X49759993Y-91440000D01*
X49765000Y-91490838D01*
X49765000Y-91541939D01*
X49774969Y-91592057D01*
X49779976Y-91642895D01*
X49794804Y-91691777D01*
X49804774Y-91741898D01*
X49824331Y-91789113D01*
X49839159Y-91837993D01*
X49863238Y-91883042D01*
X49882795Y-91930256D01*
X49911186Y-91972746D01*
X49935266Y-92017797D01*
X49967672Y-92057284D01*
X49996063Y-92099774D01*
X50032197Y-92135908D01*
X50064604Y-92175396D01*
X50104092Y-92207803D01*
X50140226Y-92243937D01*
X50182716Y-92272328D01*
X50222203Y-92304734D01*
X50267254Y-92328814D01*
X50309744Y-92357205D01*
X50356958Y-92376762D01*
X50402007Y-92400841D01*
X50450887Y-92415669D01*
X50498102Y-92435226D01*
X50548223Y-92445196D01*
X50597105Y-92460024D01*
X50647943Y-92465031D01*
X50698061Y-92475000D01*
X55981939Y-92475000D01*
X56032057Y-92465031D01*
X56082895Y-92460024D01*
X56131777Y-92445196D01*
X56181898Y-92435226D01*
X56229113Y-92415669D01*
X56277993Y-92400841D01*
X56323042Y-92376762D01*
X56370256Y-92357205D01*
X56412746Y-92328814D01*
X56457797Y-92304734D01*
X56497284Y-92272328D01*
X56539774Y-92243937D01*
X56575908Y-92207803D01*
X56615396Y-92175396D01*
X56647803Y-92135908D01*
X56683937Y-92099774D01*
X56712328Y-92057284D01*
X56744734Y-92017797D01*
X56768814Y-91972746D01*
X56797205Y-91930256D01*
X56816762Y-91883042D01*
X56840841Y-91837993D01*
X56855669Y-91789113D01*
X56875226Y-91741898D01*
X56885196Y-91691777D01*
X56900024Y-91642895D01*
X56905031Y-91592057D01*
X56915000Y-91541939D01*
X56915000Y-91490838D01*
X56920007Y-91440000D01*
X56915000Y-91389162D01*
X56915000Y-91338061D01*
X56905031Y-91287943D01*
X56900024Y-91237105D01*
X56885196Y-91188223D01*
X56875226Y-91138102D01*
X56855669Y-91090887D01*
X56840841Y-91042007D01*
X56816762Y-90996958D01*
X56797205Y-90949744D01*
X56768814Y-90907254D01*
X56744734Y-90862203D01*
X56712328Y-90822716D01*
X56683937Y-90780226D01*
X56647803Y-90744092D01*
X56615396Y-90704604D01*
X56575908Y-90672197D01*
X56539774Y-90636063D01*
X56497284Y-90607672D01*
X56457797Y-90575266D01*
X56412746Y-90551186D01*
X56370256Y-90522795D01*
X56323042Y-90503238D01*
X56277993Y-90479159D01*
X56229113Y-90464331D01*
X56181898Y-90444774D01*
X56131777Y-90434804D01*
X56082895Y-90419976D01*
X56032057Y-90414969D01*
X55981939Y-90405000D01*
X50698061Y-90405000D01*
X50647943Y-90414969D01*
X50597105Y-90419976D01*
X50548223Y-90434804D01*
X50498102Y-90444774D01*
X50450887Y-90464331D01*
X50402007Y-90479159D01*
X50356958Y-90503238D01*
X50309744Y-90522795D01*
X50267254Y-90551186D01*
X50222203Y-90575266D01*
X50182716Y-90607672D01*
X50140226Y-90636063D01*
X50104092Y-90672197D01*
X50064604Y-90704604D01*
X50032197Y-90744092D01*
X49996063Y-90780226D01*
X49967672Y-90822716D01*
X49935266Y-90862203D01*
X49911186Y-90907254D01*
X49882795Y-90949744D01*
X49863238Y-90996958D01*
X49839159Y-91042007D01*
X49824331Y-91090887D01*
X49804774Y-91138102D01*
X49794804Y-91188223D01*
X49779976Y-91237105D01*
X49774969Y-91287943D01*
X49765000Y-91338061D01*
X49765000Y-91389162D01*
X49759993Y-91440000D01*
X48173661Y-91440000D01*
X48337663Y-91275998D01*
X48527537Y-90991831D01*
X48658325Y-90676081D01*
X48725000Y-90340883D01*
X48725000Y-89999117D01*
X48658325Y-89663919D01*
X48527537Y-89348169D01*
X48337663Y-89064002D01*
X48095998Y-88822337D01*
X47811831Y-88632463D01*
X47496081Y-88501675D01*
X47160883Y-88435000D01*
X46819117Y-88435000D01*
X46483919Y-88501675D01*
X46168169Y-88632463D01*
X45884002Y-88822337D01*
X45642337Y-89064002D01*
X45452463Y-89348169D01*
X45321675Y-89663919D01*
X45255000Y-89999117D01*
X42570000Y-89999117D01*
X42570000Y-78910000D01*
X45251928Y-78910000D01*
X45251928Y-81110000D01*
X45264188Y-81234482D01*
X45300498Y-81354180D01*
X45359463Y-81464494D01*
X45438815Y-81561185D01*
X45535506Y-81640537D01*
X45645820Y-81699502D01*
X45765518Y-81735812D01*
X45890000Y-81748072D01*
X48090000Y-81748072D01*
X48214482Y-81735812D01*
X48334180Y-81699502D01*
X48444494Y-81640537D01*
X48541185Y-81561185D01*
X48620537Y-81464494D01*
X48679502Y-81354180D01*
X48715812Y-81234482D01*
X48728072Y-81110000D01*
X48728072Y-81045000D01*
X49101290Y-81045000D01*
X52572197Y-84515908D01*
X52604604Y-84555396D01*
X52644092Y-84587803D01*
X52762202Y-84684734D01*
X52855793Y-84734759D01*
X52942007Y-84780841D01*
X53137105Y-84840024D01*
X53289162Y-84855000D01*
X53289165Y-84855000D01*
X53340000Y-84860007D01*
X53390835Y-84855000D01*
X53615604Y-84855000D01*
X53695241Y-84934637D01*
X53930273Y-85091680D01*
X54191426Y-85199853D01*
X54468665Y-85255000D01*
X54751335Y-85255000D01*
X55028574Y-85199853D01*
X55123551Y-85160512D01*
X75299783Y-85160512D01*
X75341213Y-85440130D01*
X75436397Y-85706292D01*
X75503329Y-85831514D01*
X75747298Y-85903097D01*
X76560395Y-85090000D01*
X75747298Y-84276903D01*
X75503329Y-84348486D01*
X75382429Y-84603996D01*
X75313700Y-84878184D01*
X75299783Y-85160512D01*
X55123551Y-85160512D01*
X55289727Y-85091680D01*
X55524759Y-84934637D01*
X55604396Y-84855000D01*
X59639172Y-84855000D01*
X59690000Y-84860006D01*
X59740828Y-84855000D01*
X59740838Y-84855000D01*
X59892895Y-84840024D01*
X60087993Y-84780841D01*
X60267797Y-84684734D01*
X60425396Y-84555396D01*
X60457807Y-84515903D01*
X60785638Y-84188072D01*
X61912500Y-84188072D01*
X62036982Y-84175812D01*
X62156680Y-84139502D01*
X62266994Y-84080537D01*
X62363685Y-84001185D01*
X62443037Y-83904494D01*
X62492059Y-83812781D01*
X62633077Y-83925969D01*
X62908906Y-84069571D01*
X63127020Y-84140563D01*
X63373000Y-84020594D01*
X63373000Y-82677000D01*
X63353000Y-82677000D01*
X63353000Y-82423000D01*
X63373000Y-82423000D01*
X63373000Y-81079406D01*
X63627000Y-81079406D01*
X63627000Y-82423000D01*
X63647000Y-82423000D01*
X63647000Y-82677000D01*
X63627000Y-82677000D01*
X63627000Y-84020594D01*
X63872980Y-84140563D01*
X64091094Y-84069571D01*
X64366923Y-83925969D01*
X64609437Y-83731315D01*
X64764837Y-83546101D01*
X64912037Y-83725463D01*
X65153766Y-83923845D01*
X65429552Y-84071255D01*
X65728797Y-84162030D01*
X66040000Y-84192681D01*
X66351204Y-84162030D01*
X66650449Y-84071255D01*
X66926235Y-83923845D01*
X67167963Y-83725463D01*
X67283238Y-83585000D01*
X75843292Y-83585000D01*
X76072213Y-83813921D01*
X75998486Y-83853329D01*
X75926903Y-84097298D01*
X76740000Y-84910395D01*
X76754143Y-84896253D01*
X76933748Y-85075858D01*
X76919605Y-85090000D01*
X76933748Y-85104143D01*
X76754143Y-85283748D01*
X76740000Y-85269605D01*
X75926903Y-86082702D01*
X75998486Y-86326671D01*
X76253996Y-86447571D01*
X76528184Y-86516300D01*
X76810512Y-86530217D01*
X77090130Y-86488787D01*
X77356292Y-86393603D01*
X77481514Y-86326671D01*
X77553097Y-86082704D01*
X77669370Y-86198977D01*
X77744476Y-86123872D01*
X77825241Y-86204637D01*
X78060273Y-86361680D01*
X78321426Y-86469853D01*
X78598665Y-86525000D01*
X78881335Y-86525000D01*
X79158574Y-86469853D01*
X79419727Y-86361680D01*
X79654759Y-86204637D01*
X79734396Y-86125000D01*
X82499172Y-86125000D01*
X82550000Y-86130006D01*
X82600828Y-86125000D01*
X82600838Y-86125000D01*
X82752895Y-86110024D01*
X82947993Y-86050841D01*
X83127797Y-85954734D01*
X83285396Y-85825396D01*
X83317807Y-85785903D01*
X83848710Y-85255000D01*
X83961335Y-85255000D01*
X84238574Y-85199853D01*
X84499727Y-85091680D01*
X84734759Y-84934637D01*
X84814396Y-84855000D01*
X86635604Y-84855000D01*
X86715241Y-84934637D01*
X86950273Y-85091680D01*
X87211426Y-85199853D01*
X87488665Y-85255000D01*
X87771335Y-85255000D01*
X88048574Y-85199853D01*
X88309727Y-85091680D01*
X88544759Y-84934637D01*
X88624396Y-84855000D01*
X92659172Y-84855000D01*
X92710000Y-84860006D01*
X92760828Y-84855000D01*
X92760838Y-84855000D01*
X92912895Y-84840024D01*
X93107993Y-84780841D01*
X93287797Y-84684734D01*
X93445396Y-84555396D01*
X93477807Y-84515903D01*
X96520000Y-81473711D01*
X97152198Y-82105909D01*
X97184605Y-82145397D01*
X97224093Y-82177804D01*
X97342203Y-82274735D01*
X97400704Y-82306004D01*
X97522008Y-82370842D01*
X97717106Y-82430025D01*
X97869163Y-82445001D01*
X97869172Y-82445001D01*
X97920000Y-82450007D01*
X97970828Y-82445001D01*
X105229171Y-82445001D01*
X105279999Y-82450007D01*
X105330827Y-82445001D01*
X105330837Y-82445001D01*
X105482894Y-82430025D01*
X105677992Y-82370842D01*
X105857796Y-82274735D01*
X106015395Y-82145397D01*
X106047806Y-82105904D01*
X106708710Y-81445000D01*
X106821335Y-81445000D01*
X107098574Y-81389853D01*
X107359727Y-81281680D01*
X107594759Y-81124637D01*
X107794637Y-80924759D01*
X107951680Y-80689727D01*
X108059853Y-80428574D01*
X108115000Y-80151335D01*
X108115000Y-79868665D01*
X112865000Y-79868665D01*
X112865000Y-80151335D01*
X112920147Y-80428574D01*
X113028320Y-80689727D01*
X113185363Y-80924759D01*
X113385241Y-81124637D01*
X113620273Y-81281680D01*
X113881426Y-81389853D01*
X114158665Y-81445000D01*
X114441335Y-81445000D01*
X114718574Y-81389853D01*
X114979727Y-81281680D01*
X115214759Y-81124637D01*
X115414637Y-80924759D01*
X115571680Y-80689727D01*
X115679853Y-80428574D01*
X115735000Y-80151335D01*
X115735000Y-79868665D01*
X115679853Y-79591426D01*
X115571680Y-79330273D01*
X115414637Y-79095241D01*
X115214759Y-78895363D01*
X114979727Y-78738320D01*
X114718574Y-78630147D01*
X114441335Y-78575000D01*
X114158665Y-78575000D01*
X113881426Y-78630147D01*
X113620273Y-78738320D01*
X113385241Y-78895363D01*
X113185363Y-79095241D01*
X113028320Y-79330273D01*
X112920147Y-79591426D01*
X112865000Y-79868665D01*
X108115000Y-79868665D01*
X108059853Y-79591426D01*
X107951680Y-79330273D01*
X107794637Y-79095241D01*
X107594759Y-78895363D01*
X107359727Y-78738320D01*
X107098574Y-78630147D01*
X106821335Y-78575000D01*
X106538665Y-78575000D01*
X106261426Y-78630147D01*
X106000273Y-78738320D01*
X105765241Y-78895363D01*
X105565363Y-79095241D01*
X105410000Y-79327759D01*
X105254637Y-79095241D01*
X105054759Y-78895363D01*
X104819727Y-78738320D01*
X104558574Y-78630147D01*
X104281335Y-78575000D01*
X103998665Y-78575000D01*
X103721426Y-78630147D01*
X103460273Y-78738320D01*
X103225241Y-78895363D01*
X103025363Y-79095241D01*
X102868320Y-79330273D01*
X102760147Y-79591426D01*
X102705000Y-79868665D01*
X102705000Y-80151335D01*
X102749491Y-80375001D01*
X98348712Y-80375001D01*
X97955000Y-79981289D01*
X97955000Y-79868665D01*
X97899853Y-79591426D01*
X97791680Y-79330273D01*
X97634637Y-79095241D01*
X97434759Y-78895363D01*
X97199727Y-78738320D01*
X96938574Y-78630147D01*
X96661335Y-78575000D01*
X96378665Y-78575000D01*
X96101426Y-78630147D01*
X95840273Y-78738320D01*
X95605241Y-78895363D01*
X95405363Y-79095241D01*
X95248320Y-79330273D01*
X95140147Y-79591426D01*
X95085000Y-79868665D01*
X95085000Y-79981289D01*
X92281290Y-82785000D01*
X88624396Y-82785000D01*
X88544759Y-82705363D01*
X88309727Y-82548320D01*
X88048574Y-82440147D01*
X87771335Y-82385000D01*
X87488665Y-82385000D01*
X87211426Y-82440147D01*
X86950273Y-82548320D01*
X86715241Y-82705363D01*
X86635604Y-82785000D01*
X84814396Y-82785000D01*
X84734759Y-82705363D01*
X84499727Y-82548320D01*
X84238574Y-82440147D01*
X83961335Y-82385000D01*
X83678665Y-82385000D01*
X83401426Y-82440147D01*
X83140273Y-82548320D01*
X82905241Y-82705363D01*
X82705363Y-82905241D01*
X82548320Y-83140273D01*
X82440147Y-83401426D01*
X82385000Y-83678665D01*
X82385000Y-83791290D01*
X82121290Y-84055000D01*
X79734396Y-84055000D01*
X79654759Y-83975363D01*
X79419727Y-83818320D01*
X79158574Y-83710147D01*
X78881335Y-83655000D01*
X78840713Y-83655000D01*
X77039809Y-81854097D01*
X77007398Y-81814604D01*
X76849799Y-81685266D01*
X76669995Y-81589159D01*
X76474897Y-81529976D01*
X76322840Y-81515000D01*
X76322830Y-81515000D01*
X76272002Y-81509994D01*
X76221174Y-81515000D01*
X67283239Y-81515000D01*
X67167963Y-81374537D01*
X66926234Y-81176155D01*
X66650448Y-81028745D01*
X66351203Y-80937970D01*
X66040000Y-80907319D01*
X65728796Y-80937970D01*
X65429551Y-81028745D01*
X65153765Y-81176155D01*
X64912037Y-81374537D01*
X64764838Y-81553900D01*
X64609437Y-81368685D01*
X64366923Y-81174031D01*
X64091094Y-81030429D01*
X63872980Y-80959437D01*
X63627000Y-81079406D01*
X63373000Y-81079406D01*
X63127020Y-80959437D01*
X62908906Y-81030429D01*
X62633077Y-81174031D01*
X62492059Y-81287219D01*
X62443037Y-81195506D01*
X62363685Y-81098815D01*
X62266994Y-81019463D01*
X62156680Y-80960498D01*
X62036982Y-80924188D01*
X61912500Y-80911928D01*
X60007500Y-80911928D01*
X59883018Y-80924188D01*
X59763320Y-80960498D01*
X59653006Y-81019463D01*
X59556315Y-81098815D01*
X59476963Y-81195506D01*
X59417998Y-81305820D01*
X59381688Y-81425518D01*
X59369428Y-81550000D01*
X59369428Y-82676862D01*
X59261290Y-82785000D01*
X55683347Y-82785000D01*
X55718977Y-82749370D01*
X55602704Y-82633097D01*
X55846671Y-82561514D01*
X55967571Y-82306004D01*
X56036300Y-82031816D01*
X56050217Y-81749488D01*
X56008787Y-81469870D01*
X55913603Y-81203708D01*
X55846671Y-81078486D01*
X55602702Y-81006903D01*
X54789605Y-81820000D01*
X54803748Y-81834143D01*
X54624143Y-82013748D01*
X54610000Y-81999605D01*
X54595858Y-82013748D01*
X54416253Y-81834143D01*
X54430395Y-81820000D01*
X53617298Y-81006903D01*
X53373329Y-81078486D01*
X53252429Y-81333996D01*
X53183700Y-81608184D01*
X53169783Y-81890512D01*
X53211213Y-82170130D01*
X53243152Y-82259442D01*
X51811008Y-80827298D01*
X53796903Y-80827298D01*
X54610000Y-81640395D01*
X55423097Y-80827298D01*
X55351514Y-80583329D01*
X55096004Y-80462429D01*
X54821816Y-80393700D01*
X54539488Y-80379783D01*
X54259870Y-80421213D01*
X53993708Y-80516397D01*
X53868486Y-80583329D01*
X53796903Y-80827298D01*
X51811008Y-80827298D01*
X50297807Y-79314097D01*
X50265396Y-79274604D01*
X50107797Y-79145266D01*
X49927993Y-79049159D01*
X49732895Y-78989976D01*
X49580838Y-78975000D01*
X49580828Y-78975000D01*
X49530000Y-78969994D01*
X49479172Y-78975000D01*
X48728072Y-78975000D01*
X48728072Y-78910000D01*
X48715812Y-78785518D01*
X48679502Y-78665820D01*
X48620537Y-78555506D01*
X48541185Y-78458815D01*
X48444494Y-78379463D01*
X48334180Y-78320498D01*
X48214482Y-78284188D01*
X48090000Y-78271928D01*
X45890000Y-78271928D01*
X45765518Y-78284188D01*
X45645820Y-78320498D01*
X45535506Y-78379463D01*
X45438815Y-78458815D01*
X45359463Y-78555506D01*
X45300498Y-78665820D01*
X45264188Y-78785518D01*
X45251928Y-78910000D01*
X42570000Y-78910000D01*
X42570000Y-71340000D01*
X44031928Y-71340000D01*
X44031928Y-73440000D01*
X44044188Y-73564482D01*
X44080498Y-73684180D01*
X44139463Y-73794494D01*
X44218815Y-73891185D01*
X44315506Y-73970537D01*
X44425820Y-74029502D01*
X44545518Y-74065812D01*
X44670000Y-74078072D01*
X46770000Y-74078072D01*
X46894482Y-74065812D01*
X47014180Y-74029502D01*
X47124494Y-73970537D01*
X47221185Y-73891185D01*
X47300537Y-73794494D01*
X47308042Y-73780454D01*
X47461853Y-73883228D01*
X47768504Y-74010246D01*
X48094042Y-74075000D01*
X48425958Y-74075000D01*
X48751496Y-74010246D01*
X49058147Y-73883228D01*
X49334125Y-73698825D01*
X49568825Y-73464125D01*
X49753228Y-73188147D01*
X49880246Y-72881496D01*
X49945000Y-72555958D01*
X49945000Y-72224042D01*
X49880246Y-71898504D01*
X49753228Y-71591853D01*
X49584945Y-71340000D01*
X51651928Y-71340000D01*
X51651928Y-73440000D01*
X51664188Y-73564482D01*
X51700498Y-73684180D01*
X51759463Y-73794494D01*
X51838815Y-73891185D01*
X51935506Y-73970537D01*
X52045820Y-74029502D01*
X52165518Y-74065812D01*
X52290000Y-74078072D01*
X54390000Y-74078072D01*
X54514482Y-74065812D01*
X54634180Y-74029502D01*
X54744494Y-73970537D01*
X54841185Y-73891185D01*
X54920537Y-73794494D01*
X54953451Y-73732918D01*
X54990339Y-73830579D01*
X55288477Y-73976463D01*
X55609346Y-74061380D01*
X55940617Y-74082066D01*
X56269557Y-74037728D01*
X56583527Y-73930069D01*
X56769661Y-73830579D01*
X56871461Y-73561066D01*
X55880000Y-72569605D01*
X55865858Y-72583748D01*
X55686253Y-72404143D01*
X55700395Y-72390000D01*
X56059605Y-72390000D01*
X57051066Y-73381461D01*
X57054958Y-73379991D01*
X57111175Y-73464125D01*
X57345875Y-73698825D01*
X57621853Y-73883228D01*
X57928504Y-74010246D01*
X58254042Y-74075000D01*
X58585958Y-74075000D01*
X58911496Y-74010246D01*
X59218147Y-73883228D01*
X59494125Y-73698825D01*
X59690000Y-73502950D01*
X59885875Y-73698825D01*
X60161853Y-73883228D01*
X60468504Y-74010246D01*
X60794042Y-74075000D01*
X61125958Y-74075000D01*
X61451496Y-74010246D01*
X61758147Y-73883228D01*
X62034125Y-73698825D01*
X62268825Y-73464125D01*
X62453228Y-73188147D01*
X62580246Y-72881496D01*
X62645000Y-72555958D01*
X62645000Y-72224042D01*
X62580246Y-71898504D01*
X62453228Y-71591853D01*
X62284945Y-71340000D01*
X65621928Y-71340000D01*
X65621928Y-73440000D01*
X65634188Y-73564482D01*
X65670498Y-73684180D01*
X65729463Y-73794494D01*
X65808815Y-73891185D01*
X65905506Y-73970537D01*
X66015820Y-74029502D01*
X66135518Y-74065812D01*
X66260000Y-74078072D01*
X68360000Y-74078072D01*
X68484482Y-74065812D01*
X68604180Y-74029502D01*
X68714494Y-73970537D01*
X68811185Y-73891185D01*
X68890537Y-73794494D01*
X68923451Y-73732918D01*
X68960339Y-73830579D01*
X69258477Y-73976463D01*
X69579346Y-74061380D01*
X69910617Y-74082066D01*
X70239557Y-74037728D01*
X70553527Y-73930069D01*
X70739661Y-73830579D01*
X70841461Y-73561066D01*
X69850000Y-72569605D01*
X69835858Y-72583748D01*
X69656253Y-72404143D01*
X69670395Y-72390000D01*
X70029605Y-72390000D01*
X71021066Y-73381461D01*
X71290579Y-73279661D01*
X71436463Y-72981523D01*
X71521380Y-72660654D01*
X71542066Y-72329383D01*
X71497728Y-72000443D01*
X71390069Y-71686473D01*
X71290579Y-71500339D01*
X71021066Y-71398539D01*
X70029605Y-72390000D01*
X69670395Y-72390000D01*
X69656253Y-72375858D01*
X69835858Y-72196253D01*
X69850000Y-72210395D01*
X70720395Y-71340000D01*
X73241928Y-71340000D01*
X73241928Y-73440000D01*
X73254188Y-73564482D01*
X73290498Y-73684180D01*
X73349463Y-73794494D01*
X73428815Y-73891185D01*
X73525506Y-73970537D01*
X73635820Y-74029502D01*
X73755518Y-74065812D01*
X73880000Y-74078072D01*
X74045000Y-74078072D01*
X74045001Y-76156521D01*
X74040719Y-76200000D01*
X74057805Y-76373490D01*
X74108412Y-76540313D01*
X74190590Y-76694059D01*
X74273468Y-76795046D01*
X74273471Y-76795049D01*
X74301184Y-76828817D01*
X74334952Y-76856530D01*
X79638465Y-82160044D01*
X79649774Y-82216898D01*
X79727795Y-82405256D01*
X79841063Y-82574774D01*
X79985226Y-82718937D01*
X80154744Y-82832205D01*
X80343102Y-82910226D01*
X80543061Y-82950000D01*
X80746939Y-82950000D01*
X80946898Y-82910226D01*
X81135256Y-82832205D01*
X81304774Y-82718937D01*
X81448937Y-82574774D01*
X81562205Y-82405256D01*
X81640226Y-82216898D01*
X81680000Y-82016939D01*
X81680000Y-81813061D01*
X81640226Y-81613102D01*
X81562205Y-81424744D01*
X81448937Y-81255226D01*
X81304774Y-81111063D01*
X81135256Y-80997795D01*
X80946898Y-80919774D01*
X80890044Y-80908465D01*
X75815000Y-75833422D01*
X75815000Y-74078072D01*
X75980000Y-74078072D01*
X76104482Y-74065812D01*
X76224180Y-74029502D01*
X76334494Y-73970537D01*
X76431185Y-73891185D01*
X76510537Y-73794494D01*
X76543451Y-73732918D01*
X76580339Y-73830579D01*
X76878477Y-73976463D01*
X77199346Y-74061380D01*
X77530617Y-74082066D01*
X77859557Y-74037728D01*
X78173527Y-73930069D01*
X78359661Y-73830579D01*
X78461461Y-73561066D01*
X77470000Y-72569605D01*
X77455858Y-72583748D01*
X77276253Y-72404143D01*
X77290395Y-72390000D01*
X77649605Y-72390000D01*
X78641066Y-73381461D01*
X78910579Y-73279661D01*
X79056463Y-72981523D01*
X79141380Y-72660654D01*
X79162066Y-72329383D01*
X79117728Y-72000443D01*
X79010069Y-71686473D01*
X78910579Y-71500339D01*
X78641066Y-71398539D01*
X77649605Y-72390000D01*
X77290395Y-72390000D01*
X77276253Y-72375858D01*
X77455858Y-72196253D01*
X77470000Y-72210395D01*
X78340395Y-71340000D01*
X82131928Y-71340000D01*
X82131928Y-73440000D01*
X82144188Y-73564482D01*
X82180498Y-73684180D01*
X82239463Y-73794494D01*
X82318815Y-73891185D01*
X82415506Y-73970537D01*
X82525820Y-74029502D01*
X82645518Y-74065812D01*
X82770000Y-74078072D01*
X84870000Y-74078072D01*
X84994482Y-74065812D01*
X85114180Y-74029502D01*
X85224494Y-73970537D01*
X85321185Y-73891185D01*
X85400537Y-73794494D01*
X85408042Y-73780454D01*
X85561853Y-73883228D01*
X85868504Y-74010246D01*
X86194042Y-74075000D01*
X86525958Y-74075000D01*
X86851496Y-74010246D01*
X87158147Y-73883228D01*
X87434125Y-73698825D01*
X87571884Y-73561066D01*
X87908539Y-73561066D01*
X88010339Y-73830579D01*
X88308477Y-73976463D01*
X88629346Y-74061380D01*
X88960617Y-74082066D01*
X89289557Y-74037728D01*
X89603527Y-73930069D01*
X89789661Y-73830579D01*
X89891461Y-73561066D01*
X88900000Y-72569605D01*
X87908539Y-73561066D01*
X87571884Y-73561066D01*
X87668825Y-73464125D01*
X87725042Y-73379991D01*
X87728934Y-73381461D01*
X88720395Y-72390000D01*
X89079605Y-72390000D01*
X90071066Y-73381461D01*
X90074958Y-73379991D01*
X90131175Y-73464125D01*
X90365875Y-73698825D01*
X90641853Y-73883228D01*
X90948504Y-74010246D01*
X91274042Y-74075000D01*
X91605958Y-74075000D01*
X91931496Y-74010246D01*
X92238147Y-73883228D01*
X92514125Y-73698825D01*
X92748825Y-73464125D01*
X92764944Y-73440000D01*
X98641928Y-73440000D01*
X98654188Y-73564482D01*
X98690498Y-73684180D01*
X98749463Y-73794494D01*
X98828815Y-73891185D01*
X98925506Y-73970537D01*
X99035820Y-74029502D01*
X99155518Y-74065812D01*
X99280000Y-74078072D01*
X100044250Y-74075000D01*
X100203000Y-73916250D01*
X100203000Y-72517000D01*
X98803750Y-72517000D01*
X98645000Y-72675750D01*
X98641928Y-73440000D01*
X92764944Y-73440000D01*
X92933228Y-73188147D01*
X93060246Y-72881496D01*
X93125000Y-72555958D01*
X93125000Y-72224042D01*
X93060246Y-71898504D01*
X92933228Y-71591853D01*
X92764945Y-71340000D01*
X98641928Y-71340000D01*
X98645000Y-72104250D01*
X98803750Y-72263000D01*
X100203000Y-72263000D01*
X100203000Y-70863750D01*
X100457000Y-70863750D01*
X100457000Y-72263000D01*
X100477000Y-72263000D01*
X100477000Y-72517000D01*
X100457000Y-72517000D01*
X100457000Y-73916250D01*
X100615750Y-74075000D01*
X101380000Y-74078072D01*
X101504482Y-74065812D01*
X101624180Y-74029502D01*
X101734494Y-73970537D01*
X101831185Y-73891185D01*
X101910537Y-73794494D01*
X101918042Y-73780454D01*
X102071853Y-73883228D01*
X102378504Y-74010246D01*
X102704042Y-74075000D01*
X103035958Y-74075000D01*
X103361496Y-74010246D01*
X103668147Y-73883228D01*
X103944125Y-73698825D01*
X104178825Y-73464125D01*
X104194944Y-73440000D01*
X106261928Y-73440000D01*
X106274188Y-73564482D01*
X106310498Y-73684180D01*
X106369463Y-73794494D01*
X106448815Y-73891185D01*
X106545506Y-73970537D01*
X106655820Y-74029502D01*
X106775518Y-74065812D01*
X106900000Y-74078072D01*
X107664250Y-74075000D01*
X107823000Y-73916250D01*
X107823000Y-72517000D01*
X106423750Y-72517000D01*
X106265000Y-72675750D01*
X106261928Y-73440000D01*
X104194944Y-73440000D01*
X104363228Y-73188147D01*
X104490246Y-72881496D01*
X104555000Y-72555958D01*
X104555000Y-72224042D01*
X104490246Y-71898504D01*
X104363228Y-71591853D01*
X104194945Y-71340000D01*
X106261928Y-71340000D01*
X106265000Y-72104250D01*
X106423750Y-72263000D01*
X107823000Y-72263000D01*
X107823000Y-70863750D01*
X108077000Y-70863750D01*
X108077000Y-72263000D01*
X108097000Y-72263000D01*
X108097000Y-72517000D01*
X108077000Y-72517000D01*
X108077000Y-73916250D01*
X108235750Y-74075000D01*
X109000000Y-74078072D01*
X109124482Y-74065812D01*
X109244180Y-74029502D01*
X109354494Y-73970537D01*
X109451185Y-73891185D01*
X109530537Y-73794494D01*
X109538042Y-73780454D01*
X109691853Y-73883228D01*
X109998504Y-74010246D01*
X110324042Y-74075000D01*
X110655958Y-74075000D01*
X110981496Y-74010246D01*
X111288147Y-73883228D01*
X111564125Y-73698825D01*
X111798825Y-73464125D01*
X111983228Y-73188147D01*
X112110246Y-72881496D01*
X112175000Y-72555958D01*
X112175000Y-72224042D01*
X112110246Y-71898504D01*
X111983228Y-71591853D01*
X111798825Y-71315875D01*
X111564125Y-71081175D01*
X111288147Y-70896772D01*
X110981496Y-70769754D01*
X110655958Y-70705000D01*
X110324042Y-70705000D01*
X109998504Y-70769754D01*
X109691853Y-70896772D01*
X109538042Y-70999546D01*
X109530537Y-70985506D01*
X109451185Y-70888815D01*
X109354494Y-70809463D01*
X109244180Y-70750498D01*
X109124482Y-70714188D01*
X109000000Y-70701928D01*
X108235750Y-70705000D01*
X108077000Y-70863750D01*
X107823000Y-70863750D01*
X107664250Y-70705000D01*
X106900000Y-70701928D01*
X106775518Y-70714188D01*
X106655820Y-70750498D01*
X106545506Y-70809463D01*
X106448815Y-70888815D01*
X106369463Y-70985506D01*
X106310498Y-71095820D01*
X106274188Y-71215518D01*
X106261928Y-71340000D01*
X104194945Y-71340000D01*
X104178825Y-71315875D01*
X103944125Y-71081175D01*
X103668147Y-70896772D01*
X103361496Y-70769754D01*
X103035958Y-70705000D01*
X102704042Y-70705000D01*
X102378504Y-70769754D01*
X102071853Y-70896772D01*
X101918042Y-70999546D01*
X101910537Y-70985506D01*
X101831185Y-70888815D01*
X101734494Y-70809463D01*
X101624180Y-70750498D01*
X101504482Y-70714188D01*
X101380000Y-70701928D01*
X100615750Y-70705000D01*
X100457000Y-70863750D01*
X100203000Y-70863750D01*
X100044250Y-70705000D01*
X99280000Y-70701928D01*
X99155518Y-70714188D01*
X99035820Y-70750498D01*
X98925506Y-70809463D01*
X98828815Y-70888815D01*
X98749463Y-70985506D01*
X98690498Y-71095820D01*
X98654188Y-71215518D01*
X98641928Y-71340000D01*
X92764945Y-71340000D01*
X92748825Y-71315875D01*
X92514125Y-71081175D01*
X92238147Y-70896772D01*
X91931496Y-70769754D01*
X91605958Y-70705000D01*
X91274042Y-70705000D01*
X90948504Y-70769754D01*
X90641853Y-70896772D01*
X90365875Y-71081175D01*
X90131175Y-71315875D01*
X90074958Y-71400009D01*
X90071066Y-71398539D01*
X89079605Y-72390000D01*
X88720395Y-72390000D01*
X87728934Y-71398539D01*
X87725042Y-71400009D01*
X87668825Y-71315875D01*
X87571884Y-71218934D01*
X87908539Y-71218934D01*
X88900000Y-72210395D01*
X89891461Y-71218934D01*
X89789661Y-70949421D01*
X89491523Y-70803537D01*
X89170654Y-70718620D01*
X88839383Y-70697934D01*
X88510443Y-70742272D01*
X88196473Y-70849931D01*
X88010339Y-70949421D01*
X87908539Y-71218934D01*
X87571884Y-71218934D01*
X87434125Y-71081175D01*
X87158147Y-70896772D01*
X86851496Y-70769754D01*
X86525958Y-70705000D01*
X86194042Y-70705000D01*
X85868504Y-70769754D01*
X85561853Y-70896772D01*
X85408042Y-70999546D01*
X85400537Y-70985506D01*
X85321185Y-70888815D01*
X85224494Y-70809463D01*
X85114180Y-70750498D01*
X84994482Y-70714188D01*
X84870000Y-70701928D01*
X82770000Y-70701928D01*
X82645518Y-70714188D01*
X82525820Y-70750498D01*
X82415506Y-70809463D01*
X82318815Y-70888815D01*
X82239463Y-70985506D01*
X82180498Y-71095820D01*
X82144188Y-71215518D01*
X82131928Y-71340000D01*
X78340395Y-71340000D01*
X78461461Y-71218934D01*
X78359661Y-70949421D01*
X78061523Y-70803537D01*
X77740654Y-70718620D01*
X77409383Y-70697934D01*
X77080443Y-70742272D01*
X76766473Y-70849931D01*
X76580339Y-70949421D01*
X76543451Y-71047082D01*
X76510537Y-70985506D01*
X76431185Y-70888815D01*
X76334494Y-70809463D01*
X76224180Y-70750498D01*
X76104482Y-70714188D01*
X75980000Y-70701928D01*
X73880000Y-70701928D01*
X73755518Y-70714188D01*
X73635820Y-70750498D01*
X73525506Y-70809463D01*
X73428815Y-70888815D01*
X73349463Y-70985506D01*
X73290498Y-71095820D01*
X73254188Y-71215518D01*
X73241928Y-71340000D01*
X70720395Y-71340000D01*
X70841461Y-71218934D01*
X70739661Y-70949421D01*
X70441523Y-70803537D01*
X70120654Y-70718620D01*
X69789383Y-70697934D01*
X69460443Y-70742272D01*
X69146473Y-70849931D01*
X68960339Y-70949421D01*
X68923451Y-71047082D01*
X68890537Y-70985506D01*
X68811185Y-70888815D01*
X68714494Y-70809463D01*
X68604180Y-70750498D01*
X68484482Y-70714188D01*
X68360000Y-70701928D01*
X66260000Y-70701928D01*
X66135518Y-70714188D01*
X66015820Y-70750498D01*
X65905506Y-70809463D01*
X65808815Y-70888815D01*
X65729463Y-70985506D01*
X65670498Y-71095820D01*
X65634188Y-71215518D01*
X65621928Y-71340000D01*
X62284945Y-71340000D01*
X62268825Y-71315875D01*
X62034125Y-71081175D01*
X61758147Y-70896772D01*
X61451496Y-70769754D01*
X61125958Y-70705000D01*
X60794042Y-70705000D01*
X60468504Y-70769754D01*
X60161853Y-70896772D01*
X59885875Y-71081175D01*
X59690000Y-71277050D01*
X59494125Y-71081175D01*
X59218147Y-70896772D01*
X58911496Y-70769754D01*
X58585958Y-70705000D01*
X58254042Y-70705000D01*
X57928504Y-70769754D01*
X57621853Y-70896772D01*
X57345875Y-71081175D01*
X57111175Y-71315875D01*
X57054958Y-71400009D01*
X57051066Y-71398539D01*
X56059605Y-72390000D01*
X55700395Y-72390000D01*
X55686253Y-72375858D01*
X55865858Y-72196253D01*
X55880000Y-72210395D01*
X56871461Y-71218934D01*
X56769661Y-70949421D01*
X56471523Y-70803537D01*
X56150654Y-70718620D01*
X55819383Y-70697934D01*
X55490443Y-70742272D01*
X55176473Y-70849931D01*
X54990339Y-70949421D01*
X54953451Y-71047082D01*
X54920537Y-70985506D01*
X54841185Y-70888815D01*
X54744494Y-70809463D01*
X54634180Y-70750498D01*
X54514482Y-70714188D01*
X54390000Y-70701928D01*
X52290000Y-70701928D01*
X52165518Y-70714188D01*
X52045820Y-70750498D01*
X51935506Y-70809463D01*
X51838815Y-70888815D01*
X51759463Y-70985506D01*
X51700498Y-71095820D01*
X51664188Y-71215518D01*
X51651928Y-71340000D01*
X49584945Y-71340000D01*
X49568825Y-71315875D01*
X49334125Y-71081175D01*
X49058147Y-70896772D01*
X48751496Y-70769754D01*
X48425958Y-70705000D01*
X48094042Y-70705000D01*
X47768504Y-70769754D01*
X47461853Y-70896772D01*
X47308042Y-70999546D01*
X47300537Y-70985506D01*
X47221185Y-70888815D01*
X47124494Y-70809463D01*
X47014180Y-70750498D01*
X46894482Y-70714188D01*
X46770000Y-70701928D01*
X44670000Y-70701928D01*
X44545518Y-70714188D01*
X44425820Y-70750498D01*
X44315506Y-70809463D01*
X44218815Y-70888815D01*
X44139463Y-70985506D01*
X44080498Y-71095820D01*
X44044188Y-71215518D01*
X44031928Y-71340000D01*
X42570000Y-71340000D01*
X42570000Y-64795000D01*
X117450000Y-64795000D01*
X117450001Y-66007581D01*
G37*
X117450001Y-66007581D02*
X117450000Y-73627581D01*
X117450000Y-73627582D01*
X117450001Y-113640000D01*
X42570000Y-113640000D01*
X42570000Y-109779872D01*
X43765000Y-109779872D01*
X43765000Y-110220128D01*
X43850890Y-110651925D01*
X44019369Y-111058669D01*
X44263962Y-111424729D01*
X44575271Y-111736038D01*
X44941331Y-111980631D01*
X45348075Y-112149110D01*
X45779872Y-112235000D01*
X46220128Y-112235000D01*
X46651925Y-112149110D01*
X47058669Y-111980631D01*
X47424729Y-111736038D01*
X47736038Y-111424729D01*
X47980631Y-111058669D01*
X48149110Y-110651925D01*
X48235000Y-110220128D01*
X48235000Y-109779872D01*
X111765000Y-109779872D01*
X111765000Y-110220128D01*
X111850890Y-110651925D01*
X112019369Y-111058669D01*
X112263962Y-111424729D01*
X112575271Y-111736038D01*
X112941331Y-111980631D01*
X113348075Y-112149110D01*
X113779872Y-112235000D01*
X114220128Y-112235000D01*
X114651925Y-112149110D01*
X115058669Y-111980631D01*
X115424729Y-111736038D01*
X115736038Y-111424729D01*
X115980631Y-111058669D01*
X116149110Y-110651925D01*
X116235000Y-110220128D01*
X116235000Y-109779872D01*
X116149110Y-109348075D01*
X115980631Y-108941331D01*
X115736038Y-108575271D01*
X115424729Y-108263962D01*
X115058669Y-108019369D01*
X114651925Y-107850890D01*
X114220128Y-107765000D01*
X113779872Y-107765000D01*
X113348075Y-107850890D01*
X112941331Y-108019369D01*
X112575271Y-108263962D01*
X112263962Y-108575271D01*
X112019369Y-108941331D01*
X111850890Y-109348075D01*
X111765000Y-109779872D01*
X48235000Y-109779872D01*
X48149110Y-109348075D01*
X47980631Y-108941331D01*
X47736038Y-108575271D01*
X47424729Y-108263962D01*
X47058669Y-108019369D01*
X46651925Y-107850890D01*
X46220128Y-107765000D01*
X45779872Y-107765000D01*
X45348075Y-107850890D01*
X44941331Y-108019369D01*
X44575271Y-108263962D01*
X44263962Y-108575271D01*
X44019369Y-108941331D01*
X43850890Y-109348075D01*
X43765000Y-109779872D01*
X42570000Y-109779872D01*
X42570000Y-106538665D01*
X55715000Y-106538665D01*
X55715000Y-106821335D01*
X55770147Y-107098574D01*
X55878320Y-107359727D01*
X56035363Y-107594759D01*
X56235241Y-107794637D01*
X56470273Y-107951680D01*
X56731426Y-108059853D01*
X57008665Y-108115000D01*
X57291335Y-108115000D01*
X57568574Y-108059853D01*
X57829727Y-107951680D01*
X58064759Y-107794637D01*
X58186694Y-107672702D01*
X63956903Y-107672702D01*
X64028486Y-107916671D01*
X64283996Y-108037571D01*
X64558184Y-108106300D01*
X64840512Y-108120217D01*
X65120130Y-108078787D01*
X65386292Y-107983603D01*
X65511514Y-107916671D01*
X65583097Y-107672702D01*
X64770000Y-106859605D01*
X63956903Y-107672702D01*
X58186694Y-107672702D01*
X58264637Y-107594759D01*
X58421680Y-107359727D01*
X58529853Y-107098574D01*
X58585000Y-106821335D01*
X58585000Y-106750512D01*
X63329783Y-106750512D01*
X63371213Y-107030130D01*
X63466397Y-107296292D01*
X63533329Y-107421514D01*
X63777298Y-107493097D01*
X64590395Y-106680000D01*
X64949605Y-106680000D01*
X65762702Y-107493097D01*
X66006671Y-107421514D01*
X66127571Y-107166004D01*
X66196300Y-106891816D01*
X66210217Y-106609488D01*
X66199724Y-106538665D01*
X67145000Y-106538665D01*
X67145000Y-106821335D01*
X67200147Y-107098574D01*
X67308320Y-107359727D01*
X67465363Y-107594759D01*
X67665241Y-107794637D01*
X67900273Y-107951680D01*
X68161426Y-108059853D01*
X68438665Y-108115000D01*
X68721335Y-108115000D01*
X68998574Y-108059853D01*
X69259727Y-107951680D01*
X69494759Y-107794637D01*
X69694637Y-107594759D01*
X69851680Y-107359727D01*
X69959853Y-107098574D01*
X70015000Y-106821335D01*
X70015000Y-106538665D01*
X74765000Y-106538665D01*
X74765000Y-106821335D01*
X74820147Y-107098574D01*
X74928320Y-107359727D01*
X75085363Y-107594759D01*
X75285241Y-107794637D01*
X75520273Y-107951680D01*
X75781426Y-108059853D01*
X76058665Y-108115000D01*
X76341335Y-108115000D01*
X76618574Y-108059853D01*
X76879727Y-107951680D01*
X77114759Y-107794637D01*
X77314637Y-107594759D01*
X77471680Y-107359727D01*
X77579853Y-107098574D01*
X77635000Y-106821335D01*
X77635000Y-106538665D01*
X77579853Y-106261426D01*
X77471680Y-106000273D01*
X77314637Y-105765241D01*
X77114759Y-105565363D01*
X76879727Y-105408320D01*
X76618574Y-105300147D01*
X76341335Y-105245000D01*
X76058665Y-105245000D01*
X75781426Y-105300147D01*
X75520273Y-105408320D01*
X75285241Y-105565363D01*
X75085363Y-105765241D01*
X74928320Y-106000273D01*
X74820147Y-106261426D01*
X74765000Y-106538665D01*
X70015000Y-106538665D01*
X69959853Y-106261426D01*
X69851680Y-106000273D01*
X69694637Y-105765241D01*
X69494759Y-105565363D01*
X69259727Y-105408320D01*
X68998574Y-105300147D01*
X68721335Y-105245000D01*
X68438665Y-105245000D01*
X68161426Y-105300147D01*
X67900273Y-105408320D01*
X67665241Y-105565363D01*
X67465363Y-105765241D01*
X67308320Y-106000273D01*
X67200147Y-106261426D01*
X67145000Y-106538665D01*
X66199724Y-106538665D01*
X66168787Y-106329870D01*
X66073603Y-106063708D01*
X66006671Y-105938486D01*
X65762702Y-105866903D01*
X64949605Y-106680000D01*
X64590395Y-106680000D01*
X63777298Y-105866903D01*
X63533329Y-105938486D01*
X63412429Y-106193996D01*
X63343700Y-106468184D01*
X63329783Y-106750512D01*
X58585000Y-106750512D01*
X58585000Y-106538665D01*
X58529853Y-106261426D01*
X58421680Y-106000273D01*
X58264637Y-105765241D01*
X58186694Y-105687298D01*
X63956903Y-105687298D01*
X64770000Y-106500395D01*
X65583097Y-105687298D01*
X65511514Y-105443329D01*
X65256004Y-105322429D01*
X64981816Y-105253700D01*
X64699488Y-105239783D01*
X64419870Y-105281213D01*
X64153708Y-105376397D01*
X64028486Y-105443329D01*
X63956903Y-105687298D01*
X58186694Y-105687298D01*
X58064759Y-105565363D01*
X57829727Y-105408320D01*
X57568574Y-105300147D01*
X57291335Y-105245000D01*
X57008665Y-105245000D01*
X56731426Y-105300147D01*
X56470273Y-105408320D01*
X56235241Y-105565363D01*
X56035363Y-105765241D01*
X55878320Y-106000273D01*
X55770147Y-106261426D01*
X55715000Y-106538665D01*
X42570000Y-106538665D01*
X42570000Y-99330000D01*
X45399428Y-99330000D01*
X45399428Y-101330000D01*
X45411688Y-101454482D01*
X45447998Y-101574180D01*
X45506963Y-101684494D01*
X45586315Y-101781185D01*
X45683006Y-101860537D01*
X45793320Y-101919502D01*
X45913018Y-101955812D01*
X46037500Y-101968072D01*
X47376494Y-101968072D01*
X49508470Y-104100049D01*
X49536183Y-104133817D01*
X49569951Y-104161530D01*
X49569953Y-104161532D01*
X49641452Y-104220210D01*
X49670941Y-104244411D01*
X49824687Y-104326589D01*
X49991510Y-104377195D01*
X50121523Y-104390000D01*
X50121533Y-104390000D01*
X50164999Y-104394281D01*
X50208466Y-104390000D01*
X80278422Y-104390000D01*
X83661983Y-107773561D01*
X83655000Y-107808665D01*
X83655000Y-108091335D01*
X83710147Y-108368574D01*
X83818320Y-108629727D01*
X83975363Y-108864759D01*
X84175241Y-109064637D01*
X84410273Y-109221680D01*
X84671426Y-109329853D01*
X84948665Y-109385000D01*
X85231335Y-109385000D01*
X85508574Y-109329853D01*
X85769727Y-109221680D01*
X86004759Y-109064637D01*
X86204637Y-108864759D01*
X86224521Y-108835000D01*
X90305479Y-108835000D01*
X90325363Y-108864759D01*
X90525241Y-109064637D01*
X90760273Y-109221680D01*
X91021426Y-109329853D01*
X91298665Y-109385000D01*
X91581335Y-109385000D01*
X91858574Y-109329853D01*
X92119727Y-109221680D01*
X92354759Y-109064637D01*
X92554637Y-108864759D01*
X92711680Y-108629727D01*
X92819853Y-108368574D01*
X92875000Y-108091335D01*
X92875000Y-107808665D01*
X92819853Y-107531426D01*
X92711680Y-107270273D01*
X92554637Y-107035241D01*
X92354759Y-106835363D01*
X92119727Y-106678320D01*
X91858574Y-106570147D01*
X91581335Y-106515000D01*
X91298665Y-106515000D01*
X91021426Y-106570147D01*
X90760273Y-106678320D01*
X90525241Y-106835363D01*
X90325363Y-107035241D01*
X90305479Y-107065000D01*
X86224521Y-107065000D01*
X86204637Y-107035241D01*
X86004759Y-106835363D01*
X85769727Y-106678320D01*
X85508574Y-106570147D01*
X85231335Y-106515000D01*
X84948665Y-106515000D01*
X84913561Y-106521983D01*
X82081568Y-103689990D01*
X88921541Y-103689990D01*
X88965010Y-103694271D01*
X89008479Y-103689990D01*
X89008487Y-103689990D01*
X89138500Y-103677185D01*
X89305323Y-103626579D01*
X89459069Y-103544401D01*
X89593827Y-103433807D01*
X89621544Y-103400034D01*
X91263561Y-101758017D01*
X91298665Y-101765000D01*
X91581335Y-101765000D01*
X91858574Y-101709853D01*
X92119727Y-101601680D01*
X92354759Y-101444637D01*
X92554637Y-101244759D01*
X92711680Y-101009727D01*
X92819853Y-100748574D01*
X92875000Y-100471335D01*
X92875000Y-100188665D01*
X92819853Y-99911426D01*
X92711680Y-99650273D01*
X92554637Y-99415241D01*
X92354759Y-99215363D01*
X92119727Y-99058320D01*
X91858574Y-98950147D01*
X91581335Y-98895000D01*
X91298665Y-98895000D01*
X91021426Y-98950147D01*
X90760273Y-99058320D01*
X90525241Y-99215363D01*
X90325363Y-99415241D01*
X90168320Y-99650273D01*
X90060147Y-99911426D01*
X90005000Y-100188665D01*
X90005000Y-100471335D01*
X90011983Y-100506439D01*
X88598432Y-101919990D01*
X72056569Y-101919990D01*
X71459281Y-101322702D01*
X84276903Y-101322702D01*
X84348486Y-101566671D01*
X84603996Y-101687571D01*
X84878184Y-101756300D01*
X85160512Y-101770217D01*
X85440130Y-101728787D01*
X85706292Y-101633603D01*
X85831514Y-101566671D01*
X85903097Y-101322702D01*
X85090000Y-100509605D01*
X84276903Y-101322702D01*
X71459281Y-101322702D01*
X70474963Y-100338385D01*
X70506119Y-100357070D01*
X70770960Y-100451909D01*
X70993000Y-100330624D01*
X70993000Y-99187000D01*
X71247000Y-99187000D01*
X71247000Y-100330624D01*
X71469040Y-100451909D01*
X71733881Y-100357070D01*
X71975131Y-100212385D01*
X72183519Y-100023414D01*
X72351037Y-99797420D01*
X72471246Y-99543087D01*
X72511904Y-99409039D01*
X72389915Y-99187000D01*
X71247000Y-99187000D01*
X70993000Y-99187000D01*
X70973000Y-99187000D01*
X70973000Y-98933000D01*
X70993000Y-98933000D01*
X70993000Y-98913000D01*
X71247000Y-98913000D01*
X71247000Y-98933000D01*
X72389915Y-98933000D01*
X72511904Y-98710961D01*
X72471246Y-98576913D01*
X72351037Y-98322580D01*
X72183519Y-98096586D01*
X71975131Y-97907615D01*
X71789135Y-97796067D01*
X71799727Y-97791680D01*
X72034759Y-97634637D01*
X72234637Y-97434759D01*
X72391680Y-97199727D01*
X72499853Y-96938574D01*
X72555000Y-96661335D01*
X72555000Y-96378665D01*
X72548017Y-96343561D01*
X72776578Y-96115001D01*
X77357447Y-96115001D01*
X77305000Y-96378665D01*
X77305000Y-96661335D01*
X77360147Y-96938574D01*
X77468320Y-97199727D01*
X77625363Y-97434759D01*
X77825241Y-97634637D01*
X78057759Y-97790000D01*
X77825241Y-97945363D01*
X77625363Y-98145241D01*
X77468320Y-98380273D01*
X77360147Y-98641426D01*
X77305000Y-98918665D01*
X77305000Y-99201335D01*
X77360147Y-99478574D01*
X77468320Y-99739727D01*
X77625363Y-99974759D01*
X77825241Y-100174637D01*
X78060273Y-100331680D01*
X78321426Y-100439853D01*
X78598665Y-100495000D01*
X78881335Y-100495000D01*
X79158574Y-100439853D01*
X79253551Y-100400512D01*
X83649783Y-100400512D01*
X83691213Y-100680130D01*
X83786397Y-100946292D01*
X83853329Y-101071514D01*
X84097298Y-101143097D01*
X84910395Y-100330000D01*
X85269605Y-100330000D01*
X86082702Y-101143097D01*
X86326671Y-101071514D01*
X86447571Y-100816004D01*
X86516300Y-100541816D01*
X86530217Y-100259488D01*
X86488787Y-99979870D01*
X86393603Y-99713708D01*
X86326671Y-99588486D01*
X86082702Y-99516903D01*
X85269605Y-100330000D01*
X84910395Y-100330000D01*
X84097298Y-99516903D01*
X83853329Y-99588486D01*
X83732429Y-99843996D01*
X83663700Y-100118184D01*
X83649783Y-100400512D01*
X79253551Y-100400512D01*
X79419727Y-100331680D01*
X79654759Y-100174637D01*
X79854637Y-99974759D01*
X80011680Y-99739727D01*
X80119853Y-99478574D01*
X80147954Y-99337298D01*
X84276903Y-99337298D01*
X85090000Y-100150395D01*
X85903097Y-99337298D01*
X85831514Y-99093329D01*
X85576004Y-98972429D01*
X85301816Y-98903700D01*
X85019488Y-98889783D01*
X84739870Y-98931213D01*
X84473708Y-99026397D01*
X84348486Y-99093329D01*
X84276903Y-99337298D01*
X80147954Y-99337298D01*
X80175000Y-99201335D01*
X80175000Y-98918665D01*
X80119853Y-98641426D01*
X80011680Y-98380273D01*
X79854637Y-98145241D01*
X79654759Y-97945363D01*
X79422241Y-97790000D01*
X79654759Y-97634637D01*
X79854637Y-97434759D01*
X79874521Y-97405000D01*
X109176531Y-97405000D01*
X109220000Y-97409281D01*
X109263469Y-97405000D01*
X109263477Y-97405000D01*
X109393490Y-97392195D01*
X109560313Y-97341589D01*
X109714059Y-97259411D01*
X109848817Y-97148817D01*
X109876534Y-97115044D01*
X113625049Y-93366530D01*
X113658817Y-93338817D01*
X113769411Y-93204059D01*
X113793810Y-93158411D01*
X113851589Y-93050314D01*
X113902195Y-92883490D01*
X113903980Y-92865363D01*
X113915000Y-92753477D01*
X113915000Y-92753469D01*
X113919281Y-92710000D01*
X113915000Y-92666531D01*
X113915000Y-91172975D01*
X114066962Y-91021013D01*
X114213061Y-90802359D01*
X114313696Y-90559405D01*
X114365000Y-90301486D01*
X114365000Y-90038514D01*
X114313696Y-89780595D01*
X114213061Y-89537641D01*
X114066962Y-89318987D01*
X113881013Y-89133038D01*
X113662359Y-88986939D01*
X113419405Y-88886304D01*
X113161486Y-88835000D01*
X112898514Y-88835000D01*
X112640595Y-88886304D01*
X112397641Y-88986939D01*
X112178987Y-89133038D01*
X111993038Y-89318987D01*
X111846939Y-89537641D01*
X111746304Y-89780595D01*
X111695000Y-90038514D01*
X111695000Y-90301486D01*
X111746304Y-90559405D01*
X111846939Y-90802359D01*
X111993038Y-91021013D01*
X112145000Y-91172975D01*
X112145001Y-92343420D01*
X108853422Y-95635000D01*
X80876578Y-95635000D01*
X83643561Y-92868017D01*
X83678665Y-92875000D01*
X83961335Y-92875000D01*
X84238574Y-92819853D01*
X84499727Y-92711680D01*
X84734759Y-92554637D01*
X84934637Y-92354759D01*
X85091680Y-92119727D01*
X85199853Y-91858574D01*
X85255000Y-91581335D01*
X85255000Y-91298665D01*
X86195000Y-91298665D01*
X86195000Y-91581335D01*
X86250147Y-91858574D01*
X86358320Y-92119727D01*
X86515363Y-92354759D01*
X86715241Y-92554637D01*
X86950273Y-92711680D01*
X87211426Y-92819853D01*
X87488665Y-92875000D01*
X87771335Y-92875000D01*
X88048574Y-92819853D01*
X88309727Y-92711680D01*
X88544759Y-92554637D01*
X88744637Y-92354759D01*
X88901680Y-92119727D01*
X89009853Y-91858574D01*
X89065000Y-91581335D01*
X89065000Y-91298665D01*
X89009853Y-91021426D01*
X88901680Y-90760273D01*
X88744637Y-90525241D01*
X88544759Y-90325363D01*
X88309727Y-90168320D01*
X88048574Y-90060147D01*
X87939820Y-90038514D01*
X100265000Y-90038514D01*
X100265000Y-90301486D01*
X100316304Y-90559405D01*
X100416939Y-90802359D01*
X100563038Y-91021013D01*
X100748987Y-91206962D01*
X100967641Y-91353061D01*
X101210595Y-91453696D01*
X101468514Y-91505000D01*
X101731486Y-91505000D01*
X101989405Y-91453696D01*
X102232359Y-91353061D01*
X102451013Y-91206962D01*
X102636962Y-91021013D01*
X102783061Y-90802359D01*
X102883696Y-90559405D01*
X102935000Y-90301486D01*
X102935000Y-90038514D01*
X102883696Y-89780595D01*
X102783061Y-89537641D01*
X102636962Y-89318987D01*
X102451013Y-89133038D01*
X102232359Y-88986939D01*
X101989405Y-88886304D01*
X101731486Y-88835000D01*
X101468514Y-88835000D01*
X101210595Y-88886304D01*
X100967641Y-88986939D01*
X100748987Y-89133038D01*
X100563038Y-89318987D01*
X100416939Y-89537641D01*
X100316304Y-89780595D01*
X100265000Y-90038514D01*
X87939820Y-90038514D01*
X87771335Y-90005000D01*
X87488665Y-90005000D01*
X87211426Y-90060147D01*
X86950273Y-90168320D01*
X86715241Y-90325363D01*
X86515363Y-90525241D01*
X86358320Y-90760273D01*
X86250147Y-91021426D01*
X86195000Y-91298665D01*
X85255000Y-91298665D01*
X85199853Y-91021426D01*
X85091680Y-90760273D01*
X84934637Y-90525241D01*
X84734759Y-90325363D01*
X84499727Y-90168320D01*
X84238574Y-90060147D01*
X84097625Y-90032110D01*
X84102205Y-90025256D01*
X84180226Y-89836898D01*
X84220000Y-89636939D01*
X84220000Y-89433061D01*
X84180226Y-89233102D01*
X84157746Y-89178832D01*
X85970044Y-87366535D01*
X86026898Y-87355226D01*
X86215256Y-87277205D01*
X86384774Y-87163937D01*
X86528937Y-87019774D01*
X86642205Y-86850256D01*
X86720226Y-86661898D01*
X86760000Y-86461939D01*
X86760000Y-86258061D01*
X86720226Y-86058102D01*
X86642205Y-85869744D01*
X86528937Y-85700226D01*
X86438711Y-85610000D01*
X94086928Y-85610000D01*
X94086928Y-87110000D01*
X94099188Y-87234482D01*
X94135498Y-87354180D01*
X94194463Y-87464494D01*
X94273815Y-87561185D01*
X94370506Y-87640537D01*
X94480820Y-87699502D01*
X94600518Y-87735812D01*
X94725000Y-87748072D01*
X95775000Y-87748072D01*
X95899482Y-87735812D01*
X96019180Y-87699502D01*
X96083902Y-87664907D01*
X96292601Y-87728215D01*
X96520000Y-87750612D01*
X96747400Y-87728215D01*
X96966060Y-87661885D01*
X97154669Y-87561071D01*
X97213118Y-87602275D01*
X97422663Y-87695272D01*
X97484190Y-87703964D01*
X97663000Y-87578163D01*
X97663000Y-86813108D01*
X97663215Y-86812399D01*
X97680000Y-86641978D01*
X97680000Y-86487000D01*
X97917000Y-86487000D01*
X97917000Y-87578163D01*
X98095810Y-87703964D01*
X98157337Y-87695272D01*
X98366882Y-87602275D01*
X98554258Y-87470184D01*
X98712264Y-87304076D01*
X98834828Y-87110334D01*
X98917239Y-86896404D01*
X98956331Y-86670507D01*
X98796598Y-86487000D01*
X97917000Y-86487000D01*
X97680000Y-86487000D01*
X97680000Y-86213000D01*
X97917000Y-86213000D01*
X97917000Y-86233000D01*
X98796598Y-86233000D01*
X98956331Y-86049493D01*
X98942173Y-85967677D01*
X99016523Y-85975000D01*
X99016531Y-85975000D01*
X99060000Y-85979281D01*
X99103469Y-85975000D01*
X100597025Y-85975000D01*
X100748987Y-86126962D01*
X100967641Y-86273061D01*
X101210595Y-86373696D01*
X101468514Y-86425000D01*
X101731486Y-86425000D01*
X101989405Y-86373696D01*
X102232359Y-86273061D01*
X102451013Y-86126962D01*
X102636962Y-85941013D01*
X102783061Y-85722359D01*
X102829601Y-85610000D01*
X105516928Y-85610000D01*
X105516928Y-87110000D01*
X105529188Y-87234482D01*
X105565498Y-87354180D01*
X105624463Y-87464494D01*
X105703815Y-87561185D01*
X105800506Y-87640537D01*
X105910820Y-87699502D01*
X106030518Y-87735812D01*
X106155000Y-87748072D01*
X107205000Y-87748072D01*
X107329482Y-87735812D01*
X107449180Y-87699502D01*
X107513902Y-87664907D01*
X107722601Y-87728215D01*
X107950000Y-87750612D01*
X108177400Y-87728215D01*
X108396060Y-87661885D01*
X108584669Y-87561071D01*
X108643118Y-87602275D01*
X108852663Y-87695272D01*
X108914190Y-87703964D01*
X109093000Y-87578163D01*
X109093000Y-86813108D01*
X109093215Y-86812399D01*
X109110000Y-86641978D01*
X109110000Y-86487000D01*
X109347000Y-86487000D01*
X109347000Y-87578163D01*
X109525810Y-87703964D01*
X109587337Y-87695272D01*
X109796882Y-87602275D01*
X109984258Y-87470184D01*
X110142264Y-87304076D01*
X110264828Y-87110334D01*
X110347239Y-86896404D01*
X110386331Y-86670507D01*
X110226598Y-86487000D01*
X109347000Y-86487000D01*
X109110000Y-86487000D01*
X109110000Y-86213000D01*
X109347000Y-86213000D01*
X109347000Y-86233000D01*
X110226598Y-86233000D01*
X110386331Y-86049493D01*
X110372173Y-85967677D01*
X110446523Y-85975000D01*
X110446531Y-85975000D01*
X110490000Y-85979281D01*
X110533469Y-85975000D01*
X112027025Y-85975000D01*
X112178987Y-86126962D01*
X112397641Y-86273061D01*
X112640595Y-86373696D01*
X112898514Y-86425000D01*
X113161486Y-86425000D01*
X113419405Y-86373696D01*
X113662359Y-86273061D01*
X113881013Y-86126962D01*
X114066962Y-85941013D01*
X114213061Y-85722359D01*
X114313696Y-85479405D01*
X114365000Y-85221486D01*
X114365000Y-84958514D01*
X114313696Y-84700595D01*
X114213061Y-84457641D01*
X114066962Y-84238987D01*
X113881013Y-84053038D01*
X113662359Y-83906939D01*
X113419405Y-83806304D01*
X113161486Y-83755000D01*
X112898514Y-83755000D01*
X112640595Y-83806304D01*
X112397641Y-83906939D01*
X112178987Y-84053038D01*
X112027025Y-84205000D01*
X110856579Y-84205000D01*
X110511534Y-83859956D01*
X110483817Y-83826183D01*
X110349059Y-83715589D01*
X110195313Y-83633411D01*
X110028490Y-83582805D01*
X109898477Y-83570000D01*
X109898469Y-83570000D01*
X109855000Y-83565719D01*
X109811531Y-83570000D01*
X108648469Y-83570000D01*
X108605000Y-83565719D01*
X108561531Y-83570000D01*
X108561523Y-83570000D01*
X108431510Y-83582805D01*
X108264687Y-83633411D01*
X108208020Y-83663700D01*
X108110941Y-83715589D01*
X108009953Y-83798468D01*
X108009951Y-83798470D01*
X107976183Y-83826183D01*
X107948470Y-83859951D01*
X107354956Y-84453466D01*
X107321183Y-84481183D01*
X107210589Y-84615942D01*
X107128411Y-84769688D01*
X107077805Y-84936511D01*
X107074317Y-84971928D01*
X106155000Y-84971928D01*
X106030518Y-84984188D01*
X105910820Y-85020498D01*
X105800506Y-85079463D01*
X105703815Y-85158815D01*
X105624463Y-85255506D01*
X105565498Y-85365820D01*
X105529188Y-85485518D01*
X105516928Y-85610000D01*
X102829601Y-85610000D01*
X102883696Y-85479405D01*
X102935000Y-85221486D01*
X102935000Y-84958514D01*
X102883696Y-84700595D01*
X102783061Y-84457641D01*
X102636962Y-84238987D01*
X102451013Y-84053038D01*
X102232359Y-83906939D01*
X101989405Y-83806304D01*
X101731486Y-83755000D01*
X101468514Y-83755000D01*
X101210595Y-83806304D01*
X100967641Y-83906939D01*
X100748987Y-84053038D01*
X100597025Y-84205000D01*
X99426579Y-84205000D01*
X99081534Y-83859956D01*
X99053817Y-83826183D01*
X98919059Y-83715589D01*
X98765313Y-83633411D01*
X98598490Y-83582805D01*
X98468477Y-83570000D01*
X98468469Y-83570000D01*
X98425000Y-83565719D01*
X98381531Y-83570000D01*
X97218469Y-83570000D01*
X97175000Y-83565719D01*
X97131531Y-83570000D01*
X97131523Y-83570000D01*
X97001510Y-83582805D01*
X96834687Y-83633411D01*
X96778020Y-83663700D01*
X96680941Y-83715589D01*
X96579953Y-83798468D01*
X96579951Y-83798470D01*
X96546183Y-83826183D01*
X96518470Y-83859951D01*
X95924956Y-84453466D01*
X95891183Y-84481183D01*
X95780589Y-84615942D01*
X95698411Y-84769688D01*
X95647805Y-84936511D01*
X95644317Y-84971928D01*
X94725000Y-84971928D01*
X94600518Y-84984188D01*
X94480820Y-85020498D01*
X94370506Y-85079463D01*
X94273815Y-85158815D01*
X94194463Y-85255506D01*
X94135498Y-85365820D01*
X94099188Y-85485518D01*
X94086928Y-85610000D01*
X86438711Y-85610000D01*
X86384774Y-85556063D01*
X86215256Y-85442795D01*
X86026898Y-85364774D01*
X85826939Y-85325000D01*
X85623061Y-85325000D01*
X85423102Y-85364774D01*
X85234744Y-85442795D01*
X85065226Y-85556063D01*
X84921063Y-85700226D01*
X84807795Y-85869744D01*
X84729774Y-86058102D01*
X84718465Y-86114956D01*
X82589951Y-88243471D01*
X82556184Y-88271183D01*
X82528471Y-88304951D01*
X82528468Y-88304954D01*
X82445590Y-88405941D01*
X82363412Y-88559687D01*
X82312805Y-88726510D01*
X82300000Y-88856523D01*
X82300000Y-88856531D01*
X82295719Y-88900000D01*
X82300000Y-88943469D01*
X82300000Y-88996546D01*
X82267795Y-89044744D01*
X82189774Y-89233102D01*
X82150000Y-89433061D01*
X82150000Y-89636939D01*
X82189774Y-89836898D01*
X82267795Y-90025256D01*
X82381063Y-90194774D01*
X82525226Y-90338937D01*
X82694744Y-90452205D01*
X82753897Y-90476707D01*
X82705363Y-90525241D01*
X82548320Y-90760273D01*
X82440147Y-91021426D01*
X82385000Y-91298665D01*
X82385000Y-91581335D01*
X82391983Y-91616439D01*
X80174130Y-93834292D01*
X80119853Y-93561426D01*
X80011680Y-93300273D01*
X79854637Y-93065241D01*
X79654759Y-92865363D01*
X79422241Y-92710000D01*
X79654759Y-92554637D01*
X79854637Y-92354759D01*
X80011680Y-92119727D01*
X80119853Y-91858574D01*
X80175000Y-91581335D01*
X80175000Y-91298665D01*
X80119853Y-91021426D01*
X80011680Y-90760273D01*
X79854637Y-90525241D01*
X79654759Y-90325363D01*
X79419727Y-90168320D01*
X79158574Y-90060147D01*
X78881335Y-90005000D01*
X78598665Y-90005000D01*
X78321426Y-90060147D01*
X78060273Y-90168320D01*
X77825241Y-90325363D01*
X77625363Y-90525241D01*
X77468320Y-90760273D01*
X77360147Y-91021426D01*
X77305000Y-91298665D01*
X77305000Y-91581335D01*
X77360147Y-91858574D01*
X77468320Y-92119727D01*
X77625363Y-92354759D01*
X77825241Y-92554637D01*
X78057759Y-92710000D01*
X77825241Y-92865363D01*
X77625363Y-93065241D01*
X77468320Y-93300273D01*
X77360147Y-93561426D01*
X77305000Y-93838665D01*
X77305000Y-94121335D01*
X77349491Y-94345001D01*
X73276577Y-94345001D01*
X74890050Y-92731529D01*
X74923817Y-92703817D01*
X75034411Y-92569059D01*
X75116589Y-92415313D01*
X75167195Y-92248490D01*
X75180000Y-92118477D01*
X75180000Y-92118469D01*
X75184281Y-92075000D01*
X75180000Y-92031531D01*
X75180000Y-91978454D01*
X75212205Y-91930256D01*
X75290226Y-91741898D01*
X75330000Y-91541939D01*
X75330000Y-91338061D01*
X75290226Y-91138102D01*
X75212205Y-90949744D01*
X75098937Y-90780226D01*
X74954774Y-90636063D01*
X74785256Y-90522795D01*
X74596898Y-90444774D01*
X74396939Y-90405000D01*
X74193061Y-90405000D01*
X73993102Y-90444774D01*
X73804744Y-90522795D01*
X73635226Y-90636063D01*
X73491063Y-90780226D01*
X73377795Y-90949744D01*
X73299774Y-91138102D01*
X73260000Y-91338061D01*
X73260000Y-91541939D01*
X73299774Y-91741898D01*
X73322253Y-91796168D01*
X72143909Y-92974513D01*
X72036039Y-92866643D01*
X72044482Y-92865812D01*
X72164180Y-92829502D01*
X72274494Y-92770537D01*
X72371185Y-92691185D01*
X72450537Y-92594494D01*
X72509502Y-92484180D01*
X72545812Y-92364482D01*
X72558072Y-92240000D01*
X72558072Y-90640000D01*
X72545812Y-90515518D01*
X72509502Y-90395820D01*
X72450537Y-90285506D01*
X72371185Y-90188815D01*
X72274494Y-90109463D01*
X72164180Y-90050498D01*
X72044482Y-90014188D01*
X71920000Y-90001928D01*
X70320000Y-90001928D01*
X70195518Y-90014188D01*
X70075820Y-90050498D01*
X69965506Y-90109463D01*
X69868815Y-90188815D01*
X69789463Y-90285506D01*
X69730498Y-90395820D01*
X69694188Y-90515518D01*
X69681928Y-90640000D01*
X69681928Y-91065044D01*
X69663411Y-91099687D01*
X69612805Y-91266510D01*
X69595718Y-91440000D01*
X69612805Y-91613490D01*
X69631920Y-91676502D01*
X68619956Y-92688466D01*
X68586183Y-92716183D01*
X68475589Y-92850942D01*
X68393411Y-93004688D01*
X68342805Y-93171511D01*
X68330000Y-93301524D01*
X68330000Y-93301531D01*
X68325719Y-93345000D01*
X68330000Y-93388469D01*
X68330001Y-100286521D01*
X68325719Y-100330000D01*
X68342805Y-100503490D01*
X68393412Y-100670313D01*
X68475590Y-100824059D01*
X68558468Y-100925046D01*
X68558469Y-100925047D01*
X68586184Y-100958817D01*
X68619951Y-100986529D01*
X70253421Y-102620000D01*
X50531579Y-102620000D01*
X49850722Y-101939143D01*
X50140449Y-101851255D01*
X50416235Y-101703845D01*
X50657963Y-101505463D01*
X50805162Y-101326100D01*
X50960563Y-101511315D01*
X51203077Y-101705969D01*
X51478906Y-101849571D01*
X51697020Y-101920563D01*
X51943000Y-101800594D01*
X51943000Y-100457000D01*
X52197000Y-100457000D01*
X52197000Y-101800594D01*
X52442980Y-101920563D01*
X52661094Y-101849571D01*
X52936923Y-101705969D01*
X53179437Y-101511315D01*
X53379316Y-101273089D01*
X53528879Y-101000446D01*
X53622378Y-100703863D01*
X53495570Y-100457000D01*
X52197000Y-100457000D01*
X51943000Y-100457000D01*
X51923000Y-100457000D01*
X51923000Y-100203000D01*
X51943000Y-100203000D01*
X51943000Y-98859406D01*
X52197000Y-98859406D01*
X52197000Y-100203000D01*
X53495570Y-100203000D01*
X53622378Y-99956137D01*
X53528879Y-99659554D01*
X53379316Y-99386911D01*
X53331566Y-99330000D01*
X56829428Y-99330000D01*
X56829428Y-101330000D01*
X56841688Y-101454482D01*
X56877998Y-101574180D01*
X56936963Y-101684494D01*
X57016315Y-101781185D01*
X57113006Y-101860537D01*
X57223320Y-101919502D01*
X57343018Y-101955812D01*
X57467500Y-101968072D01*
X59372500Y-101968072D01*
X59496982Y-101955812D01*
X59616680Y-101919502D01*
X59726994Y-101860537D01*
X59823685Y-101781185D01*
X59903037Y-101684494D01*
X59947905Y-101600553D01*
X60073766Y-101703845D01*
X60349552Y-101851255D01*
X60648797Y-101942030D01*
X60960000Y-101972681D01*
X61271204Y-101942030D01*
X61570449Y-101851255D01*
X61846235Y-101703845D01*
X62087963Y-101505463D01*
X62235162Y-101326100D01*
X62390563Y-101511315D01*
X62633077Y-101705969D01*
X62908906Y-101849571D01*
X63127020Y-101920563D01*
X63373000Y-101800594D01*
X63373000Y-100457000D01*
X63627000Y-100457000D01*
X63627000Y-101800594D01*
X63872980Y-101920563D01*
X64091094Y-101849571D01*
X64366923Y-101705969D01*
X64609437Y-101511315D01*
X64809316Y-101273089D01*
X64958879Y-101000446D01*
X65052378Y-100703863D01*
X64925570Y-100457000D01*
X63627000Y-100457000D01*
X63373000Y-100457000D01*
X63353000Y-100457000D01*
X63353000Y-100203000D01*
X63373000Y-100203000D01*
X63373000Y-98859406D01*
X63627000Y-98859406D01*
X63627000Y-100203000D01*
X64925570Y-100203000D01*
X65052378Y-99956137D01*
X64958879Y-99659554D01*
X64809316Y-99386911D01*
X64609437Y-99148685D01*
X64366923Y-98954031D01*
X64091094Y-98810429D01*
X63872980Y-98739437D01*
X63627000Y-98859406D01*
X63373000Y-98859406D01*
X63127020Y-98739437D01*
X62908906Y-98810429D01*
X62633077Y-98954031D01*
X62390563Y-99148685D01*
X62235163Y-99333899D01*
X62087963Y-99154537D01*
X61846234Y-98956155D01*
X61570448Y-98808745D01*
X61271203Y-98717970D01*
X60960000Y-98687319D01*
X60648796Y-98717970D01*
X60349551Y-98808745D01*
X60073765Y-98956155D01*
X59947905Y-99059446D01*
X59903037Y-98975506D01*
X59823685Y-98878815D01*
X59726994Y-98799463D01*
X59616680Y-98740498D01*
X59496982Y-98704188D01*
X59372500Y-98691928D01*
X57467500Y-98691928D01*
X57343018Y-98704188D01*
X57223320Y-98740498D01*
X57113006Y-98799463D01*
X57016315Y-98878815D01*
X56936963Y-98975506D01*
X56877998Y-99085820D01*
X56841688Y-99205518D01*
X56829428Y-99330000D01*
X53331566Y-99330000D01*
X53179437Y-99148685D01*
X52936923Y-98954031D01*
X52661094Y-98810429D01*
X52442980Y-98739437D01*
X52197000Y-98859406D01*
X51943000Y-98859406D01*
X51697020Y-98739437D01*
X51478906Y-98810429D01*
X51203077Y-98954031D01*
X50960563Y-99148685D01*
X50805163Y-99333899D01*
X50657963Y-99154537D01*
X50416234Y-98956155D01*
X50140448Y-98808745D01*
X49841203Y-98717970D01*
X49530000Y-98687319D01*
X49218796Y-98717970D01*
X48919551Y-98808745D01*
X48643765Y-98956155D01*
X48517905Y-99059446D01*
X48473037Y-98975506D01*
X48393685Y-98878815D01*
X48296994Y-98799463D01*
X48186680Y-98740498D01*
X48066982Y-98704188D01*
X47942500Y-98691928D01*
X46037500Y-98691928D01*
X45913018Y-98704188D01*
X45793320Y-98740498D01*
X45683006Y-98799463D01*
X45586315Y-98878815D01*
X45506963Y-98975506D01*
X45447998Y-99085820D01*
X45411688Y-99205518D01*
X45399428Y-99330000D01*
X42570000Y-99330000D01*
X42570000Y-93838665D01*
X44285000Y-93838665D01*
X44285000Y-94121335D01*
X44340147Y-94398574D01*
X44448320Y-94659727D01*
X44605363Y-94894759D01*
X44805241Y-95094637D01*
X45040273Y-95251680D01*
X45301426Y-95359853D01*
X45578665Y-95415000D01*
X45861335Y-95415000D01*
X46138574Y-95359853D01*
X46399727Y-95251680D01*
X46634759Y-95094637D01*
X46834637Y-94894759D01*
X46991680Y-94659727D01*
X47099853Y-94398574D01*
X47155000Y-94121335D01*
X47155000Y-93838665D01*
X51905000Y-93838665D01*
X51905000Y-94121335D01*
X51960147Y-94398574D01*
X52068320Y-94659727D01*
X52225363Y-94894759D01*
X52425241Y-95094637D01*
X52660273Y-95251680D01*
X52921426Y-95359853D01*
X53198665Y-95415000D01*
X53481335Y-95415000D01*
X53758574Y-95359853D01*
X54019727Y-95251680D01*
X54254759Y-95094637D01*
X54454637Y-94894759D01*
X54610000Y-94662241D01*
X54765363Y-94894759D01*
X54965241Y-95094637D01*
X55200273Y-95251680D01*
X55461426Y-95359853D01*
X55738665Y-95415000D01*
X56021335Y-95415000D01*
X56298574Y-95359853D01*
X56559727Y-95251680D01*
X56794759Y-95094637D01*
X56994637Y-94894759D01*
X57151680Y-94659727D01*
X57259853Y-94398574D01*
X57315000Y-94121335D01*
X57315000Y-93838665D01*
X62065000Y-93838665D01*
X62065000Y-94121335D01*
X62120147Y-94398574D01*
X62228320Y-94659727D01*
X62385363Y-94894759D01*
X62585241Y-95094637D01*
X62820273Y-95251680D01*
X63081426Y-95359853D01*
X63358665Y-95415000D01*
X63641335Y-95415000D01*
X63918574Y-95359853D01*
X64179727Y-95251680D01*
X64414759Y-95094637D01*
X64614637Y-94894759D01*
X64771680Y-94659727D01*
X64879853Y-94398574D01*
X64935000Y-94121335D01*
X64935000Y-93838665D01*
X64879853Y-93561426D01*
X64771680Y-93300273D01*
X64614637Y-93065241D01*
X64414759Y-92865363D01*
X64179727Y-92708320D01*
X63918574Y-92600147D01*
X63641335Y-92545000D01*
X63358665Y-92545000D01*
X63081426Y-92600147D01*
X62820273Y-92708320D01*
X62585241Y-92865363D01*
X62385363Y-93065241D01*
X62228320Y-93300273D01*
X62120147Y-93561426D01*
X62065000Y-93838665D01*
X57315000Y-93838665D01*
X57259853Y-93561426D01*
X57151680Y-93300273D01*
X56994637Y-93065241D01*
X56794759Y-92865363D01*
X56559727Y-92708320D01*
X56298574Y-92600147D01*
X56021335Y-92545000D01*
X55738665Y-92545000D01*
X55461426Y-92600147D01*
X55200273Y-92708320D01*
X54965241Y-92865363D01*
X54765363Y-93065241D01*
X54610000Y-93297759D01*
X54454637Y-93065241D01*
X54254759Y-92865363D01*
X54019727Y-92708320D01*
X53758574Y-92600147D01*
X53481335Y-92545000D01*
X53198665Y-92545000D01*
X52921426Y-92600147D01*
X52660273Y-92708320D01*
X52425241Y-92865363D01*
X52225363Y-93065241D01*
X52068320Y-93300273D01*
X51960147Y-93561426D01*
X51905000Y-93838665D01*
X47155000Y-93838665D01*
X47099853Y-93561426D01*
X46991680Y-93300273D01*
X46834637Y-93065241D01*
X46634759Y-92865363D01*
X46399727Y-92708320D01*
X46138574Y-92600147D01*
X45861335Y-92545000D01*
X45578665Y-92545000D01*
X45301426Y-92600147D01*
X45040273Y-92708320D01*
X44805241Y-92865363D01*
X44605363Y-93065241D01*
X44448320Y-93300273D01*
X44340147Y-93561426D01*
X44285000Y-93838665D01*
X42570000Y-93838665D01*
X42570000Y-89999117D01*
X45255000Y-89999117D01*
X45255000Y-90340883D01*
X45321675Y-90676081D01*
X45452463Y-90991831D01*
X45642337Y-91275998D01*
X45884002Y-91517663D01*
X46168169Y-91707537D01*
X46483919Y-91838325D01*
X46819117Y-91905000D01*
X47160883Y-91905000D01*
X47496081Y-91838325D01*
X47811831Y-91707537D01*
X48095998Y-91517663D01*
X48173661Y-91440000D01*
X49759993Y-91440000D01*
X49765000Y-91490838D01*
X49765000Y-91541939D01*
X49774969Y-91592057D01*
X49779976Y-91642895D01*
X49794804Y-91691777D01*
X49804774Y-91741898D01*
X49824331Y-91789113D01*
X49839159Y-91837993D01*
X49863238Y-91883042D01*
X49882795Y-91930256D01*
X49911186Y-91972746D01*
X49935266Y-92017797D01*
X49967672Y-92057284D01*
X49996063Y-92099774D01*
X50032197Y-92135908D01*
X50064604Y-92175396D01*
X50104092Y-92207803D01*
X50140226Y-92243937D01*
X50182716Y-92272328D01*
X50222203Y-92304734D01*
X50267254Y-92328814D01*
X50309744Y-92357205D01*
X50356958Y-92376762D01*
X50402007Y-92400841D01*
X50450887Y-92415669D01*
X50498102Y-92435226D01*
X50548223Y-92445196D01*
X50597105Y-92460024D01*
X50647943Y-92465031D01*
X50698061Y-92475000D01*
X55981939Y-92475000D01*
X56032057Y-92465031D01*
X56082895Y-92460024D01*
X56131777Y-92445196D01*
X56181898Y-92435226D01*
X56229113Y-92415669D01*
X56277993Y-92400841D01*
X56323042Y-92376762D01*
X56370256Y-92357205D01*
X56412746Y-92328814D01*
X56457797Y-92304734D01*
X56497284Y-92272328D01*
X56539774Y-92243937D01*
X56575908Y-92207803D01*
X56615396Y-92175396D01*
X56647803Y-92135908D01*
X56683937Y-92099774D01*
X56712328Y-92057284D01*
X56744734Y-92017797D01*
X56768814Y-91972746D01*
X56797205Y-91930256D01*
X56816762Y-91883042D01*
X56840841Y-91837993D01*
X56855669Y-91789113D01*
X56875226Y-91741898D01*
X56885196Y-91691777D01*
X56900024Y-91642895D01*
X56905031Y-91592057D01*
X56915000Y-91541939D01*
X56915000Y-91490838D01*
X56920007Y-91440000D01*
X56915000Y-91389162D01*
X56915000Y-91338061D01*
X56905031Y-91287943D01*
X56900024Y-91237105D01*
X56885196Y-91188223D01*
X56875226Y-91138102D01*
X56855669Y-91090887D01*
X56840841Y-91042007D01*
X56816762Y-90996958D01*
X56797205Y-90949744D01*
X56768814Y-90907254D01*
X56744734Y-90862203D01*
X56712328Y-90822716D01*
X56683937Y-90780226D01*
X56647803Y-90744092D01*
X56615396Y-90704604D01*
X56575908Y-90672197D01*
X56539774Y-90636063D01*
X56497284Y-90607672D01*
X56457797Y-90575266D01*
X56412746Y-90551186D01*
X56370256Y-90522795D01*
X56323042Y-90503238D01*
X56277993Y-90479159D01*
X56229113Y-90464331D01*
X56181898Y-90444774D01*
X56131777Y-90434804D01*
X56082895Y-90419976D01*
X56032057Y-90414969D01*
X55981939Y-90405000D01*
X50698061Y-90405000D01*
X50647943Y-90414969D01*
X50597105Y-90419976D01*
X50548223Y-90434804D01*
X50498102Y-90444774D01*
X50450887Y-90464331D01*
X50402007Y-90479159D01*
X50356958Y-90503238D01*
X50309744Y-90522795D01*
X50267254Y-90551186D01*
X50222203Y-90575266D01*
X50182716Y-90607672D01*
X50140226Y-90636063D01*
X50104092Y-90672197D01*
X50064604Y-90704604D01*
X50032197Y-90744092D01*
X49996063Y-90780226D01*
X49967672Y-90822716D01*
X49935266Y-90862203D01*
X49911186Y-90907254D01*
X49882795Y-90949744D01*
X49863238Y-90996958D01*
X49839159Y-91042007D01*
X49824331Y-91090887D01*
X49804774Y-91138102D01*
X49794804Y-91188223D01*
X49779976Y-91237105D01*
X49774969Y-91287943D01*
X49765000Y-91338061D01*
X49765000Y-91389162D01*
X49759993Y-91440000D01*
X48173661Y-91440000D01*
X48337663Y-91275998D01*
X48527537Y-90991831D01*
X48658325Y-90676081D01*
X48725000Y-90340883D01*
X48725000Y-89999117D01*
X48658325Y-89663919D01*
X48527537Y-89348169D01*
X48337663Y-89064002D01*
X48095998Y-88822337D01*
X47811831Y-88632463D01*
X47496081Y-88501675D01*
X47160883Y-88435000D01*
X46819117Y-88435000D01*
X46483919Y-88501675D01*
X46168169Y-88632463D01*
X45884002Y-88822337D01*
X45642337Y-89064002D01*
X45452463Y-89348169D01*
X45321675Y-89663919D01*
X45255000Y-89999117D01*
X42570000Y-89999117D01*
X42570000Y-78910000D01*
X45251928Y-78910000D01*
X45251928Y-81110000D01*
X45264188Y-81234482D01*
X45300498Y-81354180D01*
X45359463Y-81464494D01*
X45438815Y-81561185D01*
X45535506Y-81640537D01*
X45645820Y-81699502D01*
X45765518Y-81735812D01*
X45890000Y-81748072D01*
X48090000Y-81748072D01*
X48214482Y-81735812D01*
X48334180Y-81699502D01*
X48444494Y-81640537D01*
X48541185Y-81561185D01*
X48620537Y-81464494D01*
X48679502Y-81354180D01*
X48715812Y-81234482D01*
X48728072Y-81110000D01*
X48728072Y-81045000D01*
X49101290Y-81045000D01*
X52572197Y-84515908D01*
X52604604Y-84555396D01*
X52644092Y-84587803D01*
X52762202Y-84684734D01*
X52855793Y-84734759D01*
X52942007Y-84780841D01*
X53137105Y-84840024D01*
X53289162Y-84855000D01*
X53289165Y-84855000D01*
X53340000Y-84860007D01*
X53390835Y-84855000D01*
X53615604Y-84855000D01*
X53695241Y-84934637D01*
X53930273Y-85091680D01*
X54191426Y-85199853D01*
X54468665Y-85255000D01*
X54751335Y-85255000D01*
X55028574Y-85199853D01*
X55123551Y-85160512D01*
X75299783Y-85160512D01*
X75341213Y-85440130D01*
X75436397Y-85706292D01*
X75503329Y-85831514D01*
X75747298Y-85903097D01*
X76560395Y-85090000D01*
X75747298Y-84276903D01*
X75503329Y-84348486D01*
X75382429Y-84603996D01*
X75313700Y-84878184D01*
X75299783Y-85160512D01*
X55123551Y-85160512D01*
X55289727Y-85091680D01*
X55524759Y-84934637D01*
X55604396Y-84855000D01*
X59639172Y-84855000D01*
X59690000Y-84860006D01*
X59740828Y-84855000D01*
X59740838Y-84855000D01*
X59892895Y-84840024D01*
X60087993Y-84780841D01*
X60267797Y-84684734D01*
X60425396Y-84555396D01*
X60457807Y-84515903D01*
X60785638Y-84188072D01*
X61912500Y-84188072D01*
X62036982Y-84175812D01*
X62156680Y-84139502D01*
X62266994Y-84080537D01*
X62363685Y-84001185D01*
X62443037Y-83904494D01*
X62492059Y-83812781D01*
X62633077Y-83925969D01*
X62908906Y-84069571D01*
X63127020Y-84140563D01*
X63373000Y-84020594D01*
X63373000Y-82677000D01*
X63353000Y-82677000D01*
X63353000Y-82423000D01*
X63373000Y-82423000D01*
X63373000Y-81079406D01*
X63627000Y-81079406D01*
X63627000Y-82423000D01*
X63647000Y-82423000D01*
X63647000Y-82677000D01*
X63627000Y-82677000D01*
X63627000Y-84020594D01*
X63872980Y-84140563D01*
X64091094Y-84069571D01*
X64366923Y-83925969D01*
X64609437Y-83731315D01*
X64764837Y-83546101D01*
X64912037Y-83725463D01*
X65153766Y-83923845D01*
X65429552Y-84071255D01*
X65728797Y-84162030D01*
X66040000Y-84192681D01*
X66351204Y-84162030D01*
X66650449Y-84071255D01*
X66926235Y-83923845D01*
X67167963Y-83725463D01*
X67283238Y-83585000D01*
X75843292Y-83585000D01*
X76072213Y-83813921D01*
X75998486Y-83853329D01*
X75926903Y-84097298D01*
X76740000Y-84910395D01*
X76754143Y-84896253D01*
X76933748Y-85075858D01*
X76919605Y-85090000D01*
X76933748Y-85104143D01*
X76754143Y-85283748D01*
X76740000Y-85269605D01*
X75926903Y-86082702D01*
X75998486Y-86326671D01*
X76253996Y-86447571D01*
X76528184Y-86516300D01*
X76810512Y-86530217D01*
X77090130Y-86488787D01*
X77356292Y-86393603D01*
X77481514Y-86326671D01*
X77553097Y-86082704D01*
X77669370Y-86198977D01*
X77744476Y-86123872D01*
X77825241Y-86204637D01*
X78060273Y-86361680D01*
X78321426Y-86469853D01*
X78598665Y-86525000D01*
X78881335Y-86525000D01*
X79158574Y-86469853D01*
X79419727Y-86361680D01*
X79654759Y-86204637D01*
X79734396Y-86125000D01*
X82499172Y-86125000D01*
X82550000Y-86130006D01*
X82600828Y-86125000D01*
X82600838Y-86125000D01*
X82752895Y-86110024D01*
X82947993Y-86050841D01*
X83127797Y-85954734D01*
X83285396Y-85825396D01*
X83317807Y-85785903D01*
X83848710Y-85255000D01*
X83961335Y-85255000D01*
X84238574Y-85199853D01*
X84499727Y-85091680D01*
X84734759Y-84934637D01*
X84814396Y-84855000D01*
X86635604Y-84855000D01*
X86715241Y-84934637D01*
X86950273Y-85091680D01*
X87211426Y-85199853D01*
X87488665Y-85255000D01*
X87771335Y-85255000D01*
X88048574Y-85199853D01*
X88309727Y-85091680D01*
X88544759Y-84934637D01*
X88624396Y-84855000D01*
X92659172Y-84855000D01*
X92710000Y-84860006D01*
X92760828Y-84855000D01*
X92760838Y-84855000D01*
X92912895Y-84840024D01*
X93107993Y-84780841D01*
X93287797Y-84684734D01*
X93445396Y-84555396D01*
X93477807Y-84515903D01*
X96520000Y-81473711D01*
X97152198Y-82105909D01*
X97184605Y-82145397D01*
X97224093Y-82177804D01*
X97342203Y-82274735D01*
X97400704Y-82306004D01*
X97522008Y-82370842D01*
X97717106Y-82430025D01*
X97869163Y-82445001D01*
X97869172Y-82445001D01*
X97920000Y-82450007D01*
X97970828Y-82445001D01*
X105229171Y-82445001D01*
X105279999Y-82450007D01*
X105330827Y-82445001D01*
X105330837Y-82445001D01*
X105482894Y-82430025D01*
X105677992Y-82370842D01*
X105857796Y-82274735D01*
X106015395Y-82145397D01*
X106047806Y-82105904D01*
X106708710Y-81445000D01*
X106821335Y-81445000D01*
X107098574Y-81389853D01*
X107359727Y-81281680D01*
X107594759Y-81124637D01*
X107794637Y-80924759D01*
X107951680Y-80689727D01*
X108059853Y-80428574D01*
X108115000Y-80151335D01*
X108115000Y-79868665D01*
X112865000Y-79868665D01*
X112865000Y-80151335D01*
X112920147Y-80428574D01*
X113028320Y-80689727D01*
X113185363Y-80924759D01*
X113385241Y-81124637D01*
X113620273Y-81281680D01*
X113881426Y-81389853D01*
X114158665Y-81445000D01*
X114441335Y-81445000D01*
X114718574Y-81389853D01*
X114979727Y-81281680D01*
X115214759Y-81124637D01*
X115414637Y-80924759D01*
X115571680Y-80689727D01*
X115679853Y-80428574D01*
X115735000Y-80151335D01*
X115735000Y-79868665D01*
X115679853Y-79591426D01*
X115571680Y-79330273D01*
X115414637Y-79095241D01*
X115214759Y-78895363D01*
X114979727Y-78738320D01*
X114718574Y-78630147D01*
X114441335Y-78575000D01*
X114158665Y-78575000D01*
X113881426Y-78630147D01*
X113620273Y-78738320D01*
X113385241Y-78895363D01*
X113185363Y-79095241D01*
X113028320Y-79330273D01*
X112920147Y-79591426D01*
X112865000Y-79868665D01*
X108115000Y-79868665D01*
X108059853Y-79591426D01*
X107951680Y-79330273D01*
X107794637Y-79095241D01*
X107594759Y-78895363D01*
X107359727Y-78738320D01*
X107098574Y-78630147D01*
X106821335Y-78575000D01*
X106538665Y-78575000D01*
X106261426Y-78630147D01*
X106000273Y-78738320D01*
X105765241Y-78895363D01*
X105565363Y-79095241D01*
X105410000Y-79327759D01*
X105254637Y-79095241D01*
X105054759Y-78895363D01*
X104819727Y-78738320D01*
X104558574Y-78630147D01*
X104281335Y-78575000D01*
X103998665Y-78575000D01*
X103721426Y-78630147D01*
X103460273Y-78738320D01*
X103225241Y-78895363D01*
X103025363Y-79095241D01*
X102868320Y-79330273D01*
X102760147Y-79591426D01*
X102705000Y-79868665D01*
X102705000Y-80151335D01*
X102749491Y-80375001D01*
X98348712Y-80375001D01*
X97955000Y-79981289D01*
X97955000Y-79868665D01*
X97899853Y-79591426D01*
X97791680Y-79330273D01*
X97634637Y-79095241D01*
X97434759Y-78895363D01*
X97199727Y-78738320D01*
X96938574Y-78630147D01*
X96661335Y-78575000D01*
X96378665Y-78575000D01*
X96101426Y-78630147D01*
X95840273Y-78738320D01*
X95605241Y-78895363D01*
X95405363Y-79095241D01*
X95248320Y-79330273D01*
X95140147Y-79591426D01*
X95085000Y-79868665D01*
X95085000Y-79981289D01*
X92281290Y-82785000D01*
X88624396Y-82785000D01*
X88544759Y-82705363D01*
X88309727Y-82548320D01*
X88048574Y-82440147D01*
X87771335Y-82385000D01*
X87488665Y-82385000D01*
X87211426Y-82440147D01*
X86950273Y-82548320D01*
X86715241Y-82705363D01*
X86635604Y-82785000D01*
X84814396Y-82785000D01*
X84734759Y-82705363D01*
X84499727Y-82548320D01*
X84238574Y-82440147D01*
X83961335Y-82385000D01*
X83678665Y-82385000D01*
X83401426Y-82440147D01*
X83140273Y-82548320D01*
X82905241Y-82705363D01*
X82705363Y-82905241D01*
X82548320Y-83140273D01*
X82440147Y-83401426D01*
X82385000Y-83678665D01*
X82385000Y-83791290D01*
X82121290Y-84055000D01*
X79734396Y-84055000D01*
X79654759Y-83975363D01*
X79419727Y-83818320D01*
X79158574Y-83710147D01*
X78881335Y-83655000D01*
X78840713Y-83655000D01*
X77039809Y-81854097D01*
X77007398Y-81814604D01*
X76849799Y-81685266D01*
X76669995Y-81589159D01*
X76474897Y-81529976D01*
X76322840Y-81515000D01*
X76322830Y-81515000D01*
X76272002Y-81509994D01*
X76221174Y-81515000D01*
X67283239Y-81515000D01*
X67167963Y-81374537D01*
X66926234Y-81176155D01*
X66650448Y-81028745D01*
X66351203Y-80937970D01*
X66040000Y-80907319D01*
X65728796Y-80937970D01*
X65429551Y-81028745D01*
X65153765Y-81176155D01*
X64912037Y-81374537D01*
X64764838Y-81553900D01*
X64609437Y-81368685D01*
X64366923Y-81174031D01*
X64091094Y-81030429D01*
X63872980Y-80959437D01*
X63627000Y-81079406D01*
X63373000Y-81079406D01*
X63127020Y-80959437D01*
X62908906Y-81030429D01*
X62633077Y-81174031D01*
X62492059Y-81287219D01*
X62443037Y-81195506D01*
X62363685Y-81098815D01*
X62266994Y-81019463D01*
X62156680Y-80960498D01*
X62036982Y-80924188D01*
X61912500Y-80911928D01*
X60007500Y-80911928D01*
X59883018Y-80924188D01*
X59763320Y-80960498D01*
X59653006Y-81019463D01*
X59556315Y-81098815D01*
X59476963Y-81195506D01*
X59417998Y-81305820D01*
X59381688Y-81425518D01*
X59369428Y-81550000D01*
X59369428Y-82676862D01*
X59261290Y-82785000D01*
X55683347Y-82785000D01*
X55718977Y-82749370D01*
X55602704Y-82633097D01*
X55846671Y-82561514D01*
X55967571Y-82306004D01*
X56036300Y-82031816D01*
X56050217Y-81749488D01*
X56008787Y-81469870D01*
X55913603Y-81203708D01*
X55846671Y-81078486D01*
X55602702Y-81006903D01*
X54789605Y-81820000D01*
X54803748Y-81834143D01*
X54624143Y-82013748D01*
X54610000Y-81999605D01*
X54595858Y-82013748D01*
X54416253Y-81834143D01*
X54430395Y-81820000D01*
X53617298Y-81006903D01*
X53373329Y-81078486D01*
X53252429Y-81333996D01*
X53183700Y-81608184D01*
X53169783Y-81890512D01*
X53211213Y-82170130D01*
X53243152Y-82259442D01*
X51811008Y-80827298D01*
X53796903Y-80827298D01*
X54610000Y-81640395D01*
X55423097Y-80827298D01*
X55351514Y-80583329D01*
X55096004Y-80462429D01*
X54821816Y-80393700D01*
X54539488Y-80379783D01*
X54259870Y-80421213D01*
X53993708Y-80516397D01*
X53868486Y-80583329D01*
X53796903Y-80827298D01*
X51811008Y-80827298D01*
X50297807Y-79314097D01*
X50265396Y-79274604D01*
X50107797Y-79145266D01*
X49927993Y-79049159D01*
X49732895Y-78989976D01*
X49580838Y-78975000D01*
X49580828Y-78975000D01*
X49530000Y-78969994D01*
X49479172Y-78975000D01*
X48728072Y-78975000D01*
X48728072Y-78910000D01*
X48715812Y-78785518D01*
X48679502Y-78665820D01*
X48620537Y-78555506D01*
X48541185Y-78458815D01*
X48444494Y-78379463D01*
X48334180Y-78320498D01*
X48214482Y-78284188D01*
X48090000Y-78271928D01*
X45890000Y-78271928D01*
X45765518Y-78284188D01*
X45645820Y-78320498D01*
X45535506Y-78379463D01*
X45438815Y-78458815D01*
X45359463Y-78555506D01*
X45300498Y-78665820D01*
X45264188Y-78785518D01*
X45251928Y-78910000D01*
X42570000Y-78910000D01*
X42570000Y-71340000D01*
X44031928Y-71340000D01*
X44031928Y-73440000D01*
X44044188Y-73564482D01*
X44080498Y-73684180D01*
X44139463Y-73794494D01*
X44218815Y-73891185D01*
X44315506Y-73970537D01*
X44425820Y-74029502D01*
X44545518Y-74065812D01*
X44670000Y-74078072D01*
X46770000Y-74078072D01*
X46894482Y-74065812D01*
X47014180Y-74029502D01*
X47124494Y-73970537D01*
X47221185Y-73891185D01*
X47300537Y-73794494D01*
X47308042Y-73780454D01*
X47461853Y-73883228D01*
X47768504Y-74010246D01*
X48094042Y-74075000D01*
X48425958Y-74075000D01*
X48751496Y-74010246D01*
X49058147Y-73883228D01*
X49334125Y-73698825D01*
X49568825Y-73464125D01*
X49753228Y-73188147D01*
X49880246Y-72881496D01*
X49945000Y-72555958D01*
X49945000Y-72224042D01*
X49880246Y-71898504D01*
X49753228Y-71591853D01*
X49584945Y-71340000D01*
X51651928Y-71340000D01*
X51651928Y-73440000D01*
X51664188Y-73564482D01*
X51700498Y-73684180D01*
X51759463Y-73794494D01*
X51838815Y-73891185D01*
X51935506Y-73970537D01*
X52045820Y-74029502D01*
X52165518Y-74065812D01*
X52290000Y-74078072D01*
X54390000Y-74078072D01*
X54514482Y-74065812D01*
X54634180Y-74029502D01*
X54744494Y-73970537D01*
X54841185Y-73891185D01*
X54920537Y-73794494D01*
X54953451Y-73732918D01*
X54990339Y-73830579D01*
X55288477Y-73976463D01*
X55609346Y-74061380D01*
X55940617Y-74082066D01*
X56269557Y-74037728D01*
X56583527Y-73930069D01*
X56769661Y-73830579D01*
X56871461Y-73561066D01*
X55880000Y-72569605D01*
X55865858Y-72583748D01*
X55686253Y-72404143D01*
X55700395Y-72390000D01*
X56059605Y-72390000D01*
X57051066Y-73381461D01*
X57054958Y-73379991D01*
X57111175Y-73464125D01*
X57345875Y-73698825D01*
X57621853Y-73883228D01*
X57928504Y-74010246D01*
X58254042Y-74075000D01*
X58585958Y-74075000D01*
X58911496Y-74010246D01*
X59218147Y-73883228D01*
X59494125Y-73698825D01*
X59690000Y-73502950D01*
X59885875Y-73698825D01*
X60161853Y-73883228D01*
X60468504Y-74010246D01*
X60794042Y-74075000D01*
X61125958Y-74075000D01*
X61451496Y-74010246D01*
X61758147Y-73883228D01*
X62034125Y-73698825D01*
X62268825Y-73464125D01*
X62453228Y-73188147D01*
X62580246Y-72881496D01*
X62645000Y-72555958D01*
X62645000Y-72224042D01*
X62580246Y-71898504D01*
X62453228Y-71591853D01*
X62284945Y-71340000D01*
X65621928Y-71340000D01*
X65621928Y-73440000D01*
X65634188Y-73564482D01*
X65670498Y-73684180D01*
X65729463Y-73794494D01*
X65808815Y-73891185D01*
X65905506Y-73970537D01*
X66015820Y-74029502D01*
X66135518Y-74065812D01*
X66260000Y-74078072D01*
X68360000Y-74078072D01*
X68484482Y-74065812D01*
X68604180Y-74029502D01*
X68714494Y-73970537D01*
X68811185Y-73891185D01*
X68890537Y-73794494D01*
X68923451Y-73732918D01*
X68960339Y-73830579D01*
X69258477Y-73976463D01*
X69579346Y-74061380D01*
X69910617Y-74082066D01*
X70239557Y-74037728D01*
X70553527Y-73930069D01*
X70739661Y-73830579D01*
X70841461Y-73561066D01*
X69850000Y-72569605D01*
X69835858Y-72583748D01*
X69656253Y-72404143D01*
X69670395Y-72390000D01*
X70029605Y-72390000D01*
X71021066Y-73381461D01*
X71290579Y-73279661D01*
X71436463Y-72981523D01*
X71521380Y-72660654D01*
X71542066Y-72329383D01*
X71497728Y-72000443D01*
X71390069Y-71686473D01*
X71290579Y-71500339D01*
X71021066Y-71398539D01*
X70029605Y-72390000D01*
X69670395Y-72390000D01*
X69656253Y-72375858D01*
X69835858Y-72196253D01*
X69850000Y-72210395D01*
X70720395Y-71340000D01*
X73241928Y-71340000D01*
X73241928Y-73440000D01*
X73254188Y-73564482D01*
X73290498Y-73684180D01*
X73349463Y-73794494D01*
X73428815Y-73891185D01*
X73525506Y-73970537D01*
X73635820Y-74029502D01*
X73755518Y-74065812D01*
X73880000Y-74078072D01*
X74045000Y-74078072D01*
X74045001Y-76156521D01*
X74040719Y-76200000D01*
X74057805Y-76373490D01*
X74108412Y-76540313D01*
X74190590Y-76694059D01*
X74273468Y-76795046D01*
X74273471Y-76795049D01*
X74301184Y-76828817D01*
X74334952Y-76856530D01*
X79638465Y-82160044D01*
X79649774Y-82216898D01*
X79727795Y-82405256D01*
X79841063Y-82574774D01*
X79985226Y-82718937D01*
X80154744Y-82832205D01*
X80343102Y-82910226D01*
X80543061Y-82950000D01*
X80746939Y-82950000D01*
X80946898Y-82910226D01*
X81135256Y-82832205D01*
X81304774Y-82718937D01*
X81448937Y-82574774D01*
X81562205Y-82405256D01*
X81640226Y-82216898D01*
X81680000Y-82016939D01*
X81680000Y-81813061D01*
X81640226Y-81613102D01*
X81562205Y-81424744D01*
X81448937Y-81255226D01*
X81304774Y-81111063D01*
X81135256Y-80997795D01*
X80946898Y-80919774D01*
X80890044Y-80908465D01*
X75815000Y-75833422D01*
X75815000Y-74078072D01*
X75980000Y-74078072D01*
X76104482Y-74065812D01*
X76224180Y-74029502D01*
X76334494Y-73970537D01*
X76431185Y-73891185D01*
X76510537Y-73794494D01*
X76543451Y-73732918D01*
X76580339Y-73830579D01*
X76878477Y-73976463D01*
X77199346Y-74061380D01*
X77530617Y-74082066D01*
X77859557Y-74037728D01*
X78173527Y-73930069D01*
X78359661Y-73830579D01*
X78461461Y-73561066D01*
X77470000Y-72569605D01*
X77455858Y-72583748D01*
X77276253Y-72404143D01*
X77290395Y-72390000D01*
X77649605Y-72390000D01*
X78641066Y-73381461D01*
X78910579Y-73279661D01*
X79056463Y-72981523D01*
X79141380Y-72660654D01*
X79162066Y-72329383D01*
X79117728Y-72000443D01*
X79010069Y-71686473D01*
X78910579Y-71500339D01*
X78641066Y-71398539D01*
X77649605Y-72390000D01*
X77290395Y-72390000D01*
X77276253Y-72375858D01*
X77455858Y-72196253D01*
X77470000Y-72210395D01*
X78340395Y-71340000D01*
X82131928Y-71340000D01*
X82131928Y-73440000D01*
X82144188Y-73564482D01*
X82180498Y-73684180D01*
X82239463Y-73794494D01*
X82318815Y-73891185D01*
X82415506Y-73970537D01*
X82525820Y-74029502D01*
X82645518Y-74065812D01*
X82770000Y-74078072D01*
X84870000Y-74078072D01*
X84994482Y-74065812D01*
X85114180Y-74029502D01*
X85224494Y-73970537D01*
X85321185Y-73891185D01*
X85400537Y-73794494D01*
X85408042Y-73780454D01*
X85561853Y-73883228D01*
X85868504Y-74010246D01*
X86194042Y-74075000D01*
X86525958Y-74075000D01*
X86851496Y-74010246D01*
X87158147Y-73883228D01*
X87434125Y-73698825D01*
X87571884Y-73561066D01*
X87908539Y-73561066D01*
X88010339Y-73830579D01*
X88308477Y-73976463D01*
X88629346Y-74061380D01*
X88960617Y-74082066D01*
X89289557Y-74037728D01*
X89603527Y-73930069D01*
X89789661Y-73830579D01*
X89891461Y-73561066D01*
X88900000Y-72569605D01*
X87908539Y-73561066D01*
X87571884Y-73561066D01*
X87668825Y-73464125D01*
X87725042Y-73379991D01*
X87728934Y-73381461D01*
X88720395Y-72390000D01*
X89079605Y-72390000D01*
X90071066Y-73381461D01*
X90074958Y-73379991D01*
X90131175Y-73464125D01*
X90365875Y-73698825D01*
X90641853Y-73883228D01*
X90948504Y-74010246D01*
X91274042Y-74075000D01*
X91605958Y-74075000D01*
X91931496Y-74010246D01*
X92238147Y-73883228D01*
X92514125Y-73698825D01*
X92748825Y-73464125D01*
X92764944Y-73440000D01*
X98641928Y-73440000D01*
X98654188Y-73564482D01*
X98690498Y-73684180D01*
X98749463Y-73794494D01*
X98828815Y-73891185D01*
X98925506Y-73970537D01*
X99035820Y-74029502D01*
X99155518Y-74065812D01*
X99280000Y-74078072D01*
X100044250Y-74075000D01*
X100203000Y-73916250D01*
X100203000Y-72517000D01*
X98803750Y-72517000D01*
X98645000Y-72675750D01*
X98641928Y-73440000D01*
X92764944Y-73440000D01*
X92933228Y-73188147D01*
X93060246Y-72881496D01*
X93125000Y-72555958D01*
X93125000Y-72224042D01*
X93060246Y-71898504D01*
X92933228Y-71591853D01*
X92764945Y-71340000D01*
X98641928Y-71340000D01*
X98645000Y-72104250D01*
X98803750Y-72263000D01*
X100203000Y-72263000D01*
X100203000Y-70863750D01*
X100457000Y-70863750D01*
X100457000Y-72263000D01*
X100477000Y-72263000D01*
X100477000Y-72517000D01*
X100457000Y-72517000D01*
X100457000Y-73916250D01*
X100615750Y-74075000D01*
X101380000Y-74078072D01*
X101504482Y-74065812D01*
X101624180Y-74029502D01*
X101734494Y-73970537D01*
X101831185Y-73891185D01*
X101910537Y-73794494D01*
X101918042Y-73780454D01*
X102071853Y-73883228D01*
X102378504Y-74010246D01*
X102704042Y-74075000D01*
X103035958Y-74075000D01*
X103361496Y-74010246D01*
X103668147Y-73883228D01*
X103944125Y-73698825D01*
X104178825Y-73464125D01*
X104194944Y-73440000D01*
X106261928Y-73440000D01*
X106274188Y-73564482D01*
X106310498Y-73684180D01*
X106369463Y-73794494D01*
X106448815Y-73891185D01*
X106545506Y-73970537D01*
X106655820Y-74029502D01*
X106775518Y-74065812D01*
X106900000Y-74078072D01*
X107664250Y-74075000D01*
X107823000Y-73916250D01*
X107823000Y-72517000D01*
X106423750Y-72517000D01*
X106265000Y-72675750D01*
X106261928Y-73440000D01*
X104194944Y-73440000D01*
X104363228Y-73188147D01*
X104490246Y-72881496D01*
X104555000Y-72555958D01*
X104555000Y-72224042D01*
X104490246Y-71898504D01*
X104363228Y-71591853D01*
X104194945Y-71340000D01*
X106261928Y-71340000D01*
X106265000Y-72104250D01*
X106423750Y-72263000D01*
X107823000Y-72263000D01*
X107823000Y-70863750D01*
X108077000Y-70863750D01*
X108077000Y-72263000D01*
X108097000Y-72263000D01*
X108097000Y-72517000D01*
X108077000Y-72517000D01*
X108077000Y-73916250D01*
X108235750Y-74075000D01*
X109000000Y-74078072D01*
X109124482Y-74065812D01*
X109244180Y-74029502D01*
X109354494Y-73970537D01*
X109451185Y-73891185D01*
X109530537Y-73794494D01*
X109538042Y-73780454D01*
X109691853Y-73883228D01*
X109998504Y-74010246D01*
X110324042Y-74075000D01*
X110655958Y-74075000D01*
X110981496Y-74010246D01*
X111288147Y-73883228D01*
X111564125Y-73698825D01*
X111798825Y-73464125D01*
X111983228Y-73188147D01*
X112110246Y-72881496D01*
X112175000Y-72555958D01*
X112175000Y-72224042D01*
X112110246Y-71898504D01*
X111983228Y-71591853D01*
X111798825Y-71315875D01*
X111564125Y-71081175D01*
X111288147Y-70896772D01*
X110981496Y-70769754D01*
X110655958Y-70705000D01*
X110324042Y-70705000D01*
X109998504Y-70769754D01*
X109691853Y-70896772D01*
X109538042Y-70999546D01*
X109530537Y-70985506D01*
X109451185Y-70888815D01*
X109354494Y-70809463D01*
X109244180Y-70750498D01*
X109124482Y-70714188D01*
X109000000Y-70701928D01*
X108235750Y-70705000D01*
X108077000Y-70863750D01*
X107823000Y-70863750D01*
X107664250Y-70705000D01*
X106900000Y-70701928D01*
X106775518Y-70714188D01*
X106655820Y-70750498D01*
X106545506Y-70809463D01*
X106448815Y-70888815D01*
X106369463Y-70985506D01*
X106310498Y-71095820D01*
X106274188Y-71215518D01*
X106261928Y-71340000D01*
X104194945Y-71340000D01*
X104178825Y-71315875D01*
X103944125Y-71081175D01*
X103668147Y-70896772D01*
X103361496Y-70769754D01*
X103035958Y-70705000D01*
X102704042Y-70705000D01*
X102378504Y-70769754D01*
X102071853Y-70896772D01*
X101918042Y-70999546D01*
X101910537Y-70985506D01*
X101831185Y-70888815D01*
X101734494Y-70809463D01*
X101624180Y-70750498D01*
X101504482Y-70714188D01*
X101380000Y-70701928D01*
X100615750Y-70705000D01*
X100457000Y-70863750D01*
X100203000Y-70863750D01*
X100044250Y-70705000D01*
X99280000Y-70701928D01*
X99155518Y-70714188D01*
X99035820Y-70750498D01*
X98925506Y-70809463D01*
X98828815Y-70888815D01*
X98749463Y-70985506D01*
X98690498Y-71095820D01*
X98654188Y-71215518D01*
X98641928Y-71340000D01*
X92764945Y-71340000D01*
X92748825Y-71315875D01*
X92514125Y-71081175D01*
X92238147Y-70896772D01*
X91931496Y-70769754D01*
X91605958Y-70705000D01*
X91274042Y-70705000D01*
X90948504Y-70769754D01*
X90641853Y-70896772D01*
X90365875Y-71081175D01*
X90131175Y-71315875D01*
X90074958Y-71400009D01*
X90071066Y-71398539D01*
X89079605Y-72390000D01*
X88720395Y-72390000D01*
X87728934Y-71398539D01*
X87725042Y-71400009D01*
X87668825Y-71315875D01*
X87571884Y-71218934D01*
X87908539Y-71218934D01*
X88900000Y-72210395D01*
X89891461Y-71218934D01*
X89789661Y-70949421D01*
X89491523Y-70803537D01*
X89170654Y-70718620D01*
X88839383Y-70697934D01*
X88510443Y-70742272D01*
X88196473Y-70849931D01*
X88010339Y-70949421D01*
X87908539Y-71218934D01*
X87571884Y-71218934D01*
X87434125Y-71081175D01*
X87158147Y-70896772D01*
X86851496Y-70769754D01*
X86525958Y-70705000D01*
X86194042Y-70705000D01*
X85868504Y-70769754D01*
X85561853Y-70896772D01*
X85408042Y-70999546D01*
X85400537Y-70985506D01*
X85321185Y-70888815D01*
X85224494Y-70809463D01*
X85114180Y-70750498D01*
X84994482Y-70714188D01*
X84870000Y-70701928D01*
X82770000Y-70701928D01*
X82645518Y-70714188D01*
X82525820Y-70750498D01*
X82415506Y-70809463D01*
X82318815Y-70888815D01*
X82239463Y-70985506D01*
X82180498Y-71095820D01*
X82144188Y-71215518D01*
X82131928Y-71340000D01*
X78340395Y-71340000D01*
X78461461Y-71218934D01*
X78359661Y-70949421D01*
X78061523Y-70803537D01*
X77740654Y-70718620D01*
X77409383Y-70697934D01*
X77080443Y-70742272D01*
X76766473Y-70849931D01*
X76580339Y-70949421D01*
X76543451Y-71047082D01*
X76510537Y-70985506D01*
X76431185Y-70888815D01*
X76334494Y-70809463D01*
X76224180Y-70750498D01*
X76104482Y-70714188D01*
X75980000Y-70701928D01*
X73880000Y-70701928D01*
X73755518Y-70714188D01*
X73635820Y-70750498D01*
X73525506Y-70809463D01*
X73428815Y-70888815D01*
X73349463Y-70985506D01*
X73290498Y-71095820D01*
X73254188Y-71215518D01*
X73241928Y-71340000D01*
X70720395Y-71340000D01*
X70841461Y-71218934D01*
X70739661Y-70949421D01*
X70441523Y-70803537D01*
X70120654Y-70718620D01*
X69789383Y-70697934D01*
X69460443Y-70742272D01*
X69146473Y-70849931D01*
X68960339Y-70949421D01*
X68923451Y-71047082D01*
X68890537Y-70985506D01*
X68811185Y-70888815D01*
X68714494Y-70809463D01*
X68604180Y-70750498D01*
X68484482Y-70714188D01*
X68360000Y-70701928D01*
X66260000Y-70701928D01*
X66135518Y-70714188D01*
X66015820Y-70750498D01*
X65905506Y-70809463D01*
X65808815Y-70888815D01*
X65729463Y-70985506D01*
X65670498Y-71095820D01*
X65634188Y-71215518D01*
X65621928Y-71340000D01*
X62284945Y-71340000D01*
X62268825Y-71315875D01*
X62034125Y-71081175D01*
X61758147Y-70896772D01*
X61451496Y-70769754D01*
X61125958Y-70705000D01*
X60794042Y-70705000D01*
X60468504Y-70769754D01*
X60161853Y-70896772D01*
X59885875Y-71081175D01*
X59690000Y-71277050D01*
X59494125Y-71081175D01*
X59218147Y-70896772D01*
X58911496Y-70769754D01*
X58585958Y-70705000D01*
X58254042Y-70705000D01*
X57928504Y-70769754D01*
X57621853Y-70896772D01*
X57345875Y-71081175D01*
X57111175Y-71315875D01*
X57054958Y-71400009D01*
X57051066Y-71398539D01*
X56059605Y-72390000D01*
X55700395Y-72390000D01*
X55686253Y-72375858D01*
X55865858Y-72196253D01*
X55880000Y-72210395D01*
X56871461Y-71218934D01*
X56769661Y-70949421D01*
X56471523Y-70803537D01*
X56150654Y-70718620D01*
X55819383Y-70697934D01*
X55490443Y-70742272D01*
X55176473Y-70849931D01*
X54990339Y-70949421D01*
X54953451Y-71047082D01*
X54920537Y-70985506D01*
X54841185Y-70888815D01*
X54744494Y-70809463D01*
X54634180Y-70750498D01*
X54514482Y-70714188D01*
X54390000Y-70701928D01*
X52290000Y-70701928D01*
X52165518Y-70714188D01*
X52045820Y-70750498D01*
X51935506Y-70809463D01*
X51838815Y-70888815D01*
X51759463Y-70985506D01*
X51700498Y-71095820D01*
X51664188Y-71215518D01*
X51651928Y-71340000D01*
X49584945Y-71340000D01*
X49568825Y-71315875D01*
X49334125Y-71081175D01*
X49058147Y-70896772D01*
X48751496Y-70769754D01*
X48425958Y-70705000D01*
X48094042Y-70705000D01*
X47768504Y-70769754D01*
X47461853Y-70896772D01*
X47308042Y-70999546D01*
X47300537Y-70985506D01*
X47221185Y-70888815D01*
X47124494Y-70809463D01*
X47014180Y-70750498D01*
X46894482Y-70714188D01*
X46770000Y-70701928D01*
X44670000Y-70701928D01*
X44545518Y-70714188D01*
X44425820Y-70750498D01*
X44315506Y-70809463D01*
X44218815Y-70888815D01*
X44139463Y-70985506D01*
X44080498Y-71095820D01*
X44044188Y-71215518D01*
X44031928Y-71340000D01*
X42570000Y-71340000D01*
X42570000Y-64795000D01*
X117450000Y-64795000D01*
X117450001Y-66007581D01*
%TD*%
M02*
