M48
; DRILL file {KiCad 5.1.6-c6e7f7d~87~ubuntu18.04.1} date Sat Sep 12 21:04:20 2020
; FORMAT={-:-/ absolute / inch / decimal}
; #@! TF.CreationDate,2020-09-12T21:04:20+10:00
; #@! TF.GenerationSoftware,Kicad,Pcbnew,5.1.6-c6e7f7d~87~ubuntu18.04.1
; #@! TF.FileFunction,Plated,1,2,PTH
FMAT,2
INCH
T1C0.0157
T2C0.0276
T3C0.0295
T4C0.0315
T5C0.0433
%
G90
G05
T1
X2.0Y-3.6
X2.2Y-3.6
X2.925Y-3.6
X3.175Y-3.225
X3.275Y-3.525
X3.375Y-3.4
T2
X4.45Y-3.35
X4.45Y-3.55
X4.0Y-3.35
X4.0Y-3.55
T3
X3.75Y-3.4
X3.8Y-3.4
X3.85Y-3.4
X4.2Y-3.4
X4.25Y-3.4
X4.3Y-3.4
T4
X2.7Y-4.2
X3.0Y-4.2
X2.8Y-3.6
X2.8Y-3.7
X2.8Y-3.8
X2.8Y-3.9
X3.1Y-3.6
X3.1Y-3.7
X3.1Y-3.8
X3.1Y-3.9
X3.6Y-3.95
X3.6Y-4.25
X1.8Y-3.7
X2.1Y-3.7
X4.2Y-3.15
X4.5Y-3.15
X2.2Y-3.7
X2.5Y-3.7
X3.35Y-3.95
X3.35Y-4.25
X3.45Y-3.3
X3.45Y-3.6
X3.0213Y-3.35
X3.1Y-3.35
X2.15Y-3.2213
X2.15Y-3.3
X3.8Y-3.15
X4.1Y-3.15
X2.25Y-4.2
X2.55Y-4.2
X3.3Y-3.3
X3.3Y-3.6
T5
X3.3Y-2.85
X3.4Y-2.85
X3.5Y-2.85
X3.6Y-2.85
X1.85Y-3.15
X1.85Y-3.55
X2.4Y-3.25
X2.5Y-3.25
X2.6Y-3.25
X4.25Y-2.85
X4.35Y-2.85
X2.65Y-2.85
X2.75Y-2.85
X1.85Y-3.95
X1.95Y-3.95
X2.05Y-3.95
X1.8Y-2.85
X1.9Y-2.85
X2.3Y-3.95
X2.4Y-3.95
X2.5Y-3.95
X2.1Y-2.85
X2.2Y-2.85
X2.3Y-2.85
X2.4Y-2.85
X2.95Y-2.85
X3.05Y-2.85
X3.95Y-2.85
X4.05Y-2.85
T0
M30
